<svg width="282" height="280" viewBox="0 0 282 280" fill="none" xmlns="http://www.w3.org/2000/svg">
<rect width="282" height="280" rx="8" fill="black"/>
<path d="M192.384 183.836C135.307 211 99.8849 188.273 77.2099 174.469C75.8068 173.599 73.422 174.672 75.4911 177.049C83.0453 186.209 107.802 208.286 140.116 208.286C172.453 208.286 191.691 190.642 194.097 187.564C196.487 184.512 194.799 182.828 192.383 183.836H192.384ZM208.414 174.984C206.881 172.988 199.093 172.616 194.193 173.218C189.284 173.802 181.916 176.802 182.557 178.604C182.886 179.278 183.557 178.976 186.929 178.672C190.31 178.335 199.782 177.14 201.755 179.72C203.738 182.318 198.734 194.694 197.82 196.69C196.938 198.685 198.158 199.2 199.816 197.871C201.452 196.542 204.414 193.101 206.401 188.231C208.375 183.334 209.579 176.503 208.414 174.984Z" fill="#FF9900"/>
<path fill-rule="evenodd" clip-rule="evenodd" d="M154.006 128.409C154.006 135.536 154.186 141.48 150.584 147.81C147.676 152.956 143.07 156.121 137.924 156.121C130.899 156.121 126.808 150.769 126.808 142.87C126.808 127.277 140.78 124.447 154.006 124.447V128.409ZM172.455 173.001C171.245 174.081 169.496 174.159 168.132 173.438C162.06 168.395 160.979 166.054 157.634 161.242C147.599 171.483 140.497 174.544 127.477 174.544C112.09 174.544 100.1 165.05 100.1 146.035C100.1 131.188 108.154 121.076 119.603 116.136C129.536 111.761 143.405 110.989 154.006 109.78V107.413C154.006 103.064 154.34 97.9181 151.793 94.1616C149.554 90.7908 145.283 89.4012 141.526 89.4012C134.553 89.4012 128.326 92.9776 126.808 100.388C126.499 102.035 125.29 103.656 123.643 103.733L105.889 101.83C104.397 101.494 102.75 100.286 103.162 97.9951C107.253 76.4846 126.679 70 144.073 70C152.976 70 164.606 72.3675 171.631 79.1091C180.534 87.4199 179.685 98.5098 179.685 110.578V139.087C179.685 147.656 183.235 151.412 186.58 156.044C187.764 157.691 188.021 159.673 186.529 160.907C182.798 164.02 176.159 169.81 172.506 173.052L172.454 173.001" fill="white"/>
<path d="M192.384 183.836C135.307 211 99.8849 188.273 77.2099 174.469C75.8068 173.599 73.422 174.672 75.4911 177.049C83.0453 186.209 107.802 208.286 140.116 208.286C172.453 208.286 191.691 190.642 194.097 187.564C196.487 184.512 194.799 182.828 192.383 183.836H192.384ZM208.414 174.984C206.881 172.988 199.093 172.616 194.193 173.218C189.284 173.802 181.916 176.802 182.557 178.604C182.886 179.278 183.557 178.976 186.929 178.672C190.31 178.335 199.782 177.14 201.755 179.72C203.738 182.318 198.734 194.694 197.82 196.69C196.938 198.685 198.158 199.2 199.816 197.871C201.452 196.542 204.414 193.101 206.401 188.231C208.375 183.334 209.579 176.503 208.414 174.984Z" fill="#FF9900"/>
<path fill-rule="evenodd" clip-rule="evenodd" d="M154.006 128.409C154.006 135.536 154.186 141.48 150.584 147.81C147.676 152.956 143.07 156.121 137.924 156.121C130.899 156.121 126.808 150.769 126.808 142.87C126.808 127.277 140.78 124.447 154.006 124.447V128.409ZM172.455 173.001C171.245 174.081 169.496 174.159 168.132 173.438C162.06 168.395 160.979 166.054 157.634 161.242C147.599 171.483 140.497 174.544 127.477 174.544C112.09 174.544 100.1 165.05 100.1 146.035C100.1 131.188 108.154 121.076 119.603 116.136C129.536 111.761 143.405 110.989 154.006 109.78V107.413C154.006 103.064 154.34 97.9181 151.793 94.1616C149.554 90.7908 145.283 89.4012 141.526 89.4012C134.553 89.4012 128.326 92.9776 126.808 100.388C126.499 102.035 125.29 103.656 123.643 103.733L105.889 101.83C104.397 101.494 102.75 100.286 103.162 97.9951C107.253 76.4846 126.679 70 144.073 70C152.976 70 164.606 72.3675 171.631 79.1091C180.534 87.4199 179.685 98.5098 179.685 110.578V139.087C179.685 147.656 183.235 151.412 186.58 156.044C187.764 157.691 188.021 159.673 186.529 160.907C182.798 164.02 176.159 169.81 172.506 173.052L172.454 173.001" fill="white"/>
</svg>
