<svg width="282" height="280" viewBox="0 0 282 280" fill="none" xmlns="http://www.w3.org/2000/svg">
<rect width="282" height="280" rx="8" fill="url(#paint0_radial_0_190)"/>
<g clip-path="url(#clip0_0_190)">
<path d="M193.708 118.015C184.513 123.689 178.835 133.417 178.835 144.225C178.835 156.384 186.136 167.462 197.223 172.056C195.06 179.081 191.815 185.566 187.758 191.51C181.809 199.887 175.59 208.533 166.395 208.533C157.201 208.533 154.497 203.129 143.68 203.129C133.134 203.129 129.348 208.803 120.695 208.803C112.042 208.803 106.093 200.967 99.3321 191.24C90.4083 177.73 85.2704 162.058 85 145.576C85 118.826 102.307 104.505 119.613 104.505C128.808 104.505 136.379 110.45 142.058 110.45C147.466 110.45 156.12 104.235 166.395 104.235C177.212 103.965 187.488 109.099 193.708 118.015ZM161.528 92.8864C166.125 87.4823 168.559 80.7273 168.829 73.702C168.829 72.8914 168.829 71.8106 168.559 71C160.717 71.8106 153.415 75.5934 148.278 81.5379C143.68 86.6717 140.976 93.1566 140.706 100.182C140.706 100.992 140.706 101.803 140.976 102.614C141.517 102.614 142.328 102.884 142.869 102.884C150.17 102.343 156.931 98.5606 161.528 92.8864Z" fill="white"/>
</g>
<defs>
<radialGradient id="paint0_radial_0_190" cx="0" cy="0" r="1" gradientUnits="userSpaceOnUse" gradientTransform="translate(282) rotate(135.204) scale(397.397 751.681)">
<stop stop-color="#DD117B"/>
<stop offset="0.505294" stop-color="#B5197E"/>
<stop offset="1" stop-color="#FB9C0B"/>
</radialGradient>
<clipPath id="clip0_0_190">
<rect width="112.223" height="137.803" fill="white" transform="translate(85 71)"/>
</clipPath>
</defs>
</svg>
