<svg width="496" height="496" viewBox="0 0 496 496" fill="none" xmlns="http://www.w3.org/2000/svg">
<path d="M55.4677 395.996C54.7237 396.297 55.3164 397.346 55.919 397.197C69.0427 393.571 81.9693 389.266 94.6467 384.301C98.8307 383.126 102.861 381.461 106.655 379.341C108.679 377.945 100.524 367.34 109.356 345.414C113.71 334.609 121.691 325.621 128.871 316.594C139.733 302.939 150.866 288.03 164.898 272.914C167.437 270.186 172.863 262.451 175.254 270.662C179.237 284.342 172.511 297.62 168.499 310.29C168.027 311.778 170.483 312.854 171.202 311.49C177.243 300.182 181.734 286.418 179.458 273.363C179.179 270.725 178.25 268.198 176.755 266.007C172.365 260.626 167.269 265.167 163.246 269.611C153.901 279.932 113.547 328.139 107.694 340.762C102.486 352.036 100.187 365.381 104.542 377.238C100.654 378.337 96.8432 379.691 93.1339 381.293C78.368 386.845 65.6729 391.272 55.4677 395.996Z" fill="#191919"/>
<path d="M272.225 301.729C266.784 300.028 255.73 299.929 250.009 300.229C222.384 301.667 194.93 314.769 161.143 328.898C161.048 328.922 160.959 328.966 160.882 329.026C160.805 329.086 160.741 329.162 160.694 329.248C160.647 329.334 160.618 329.429 160.61 329.526C160.601 329.624 160.613 329.722 160.644 329.815C160.675 329.908 160.725 329.994 160.79 330.067C160.856 330.14 160.936 330.198 161.025 330.239C161.114 330.28 161.21 330.302 161.308 330.303C161.406 330.305 161.504 330.287 161.594 330.249C193.981 320.458 223.458 302.399 259.306 303.681C263.507 303.83 267.562 304.581 271.763 304.881C273.725 305.181 274.04 302.295 272.225 301.729Z" fill="#191919"/>
<path d="M283.484 312.086C262.275 313.854 239.588 322.157 220.137 330.4C219.393 330.715 219.986 332.047 220.737 331.75C249.034 320.59 277.872 316.418 283.933 315.238C285.584 314.789 285.284 311.937 283.484 312.086Z" fill="#191919"/>
<path d="M294.741 377.233C284.632 378.071 269.053 383.892 259.773 388.041C248.502 393.194 237.704 399.322 227.5 406.355C207.534 419.864 185.34 435.974 159.796 432.924C137.005 430.196 128.948 415.335 127.06 415.96C124.846 416.445 122.686 417.149 120.612 418.063C118.653 418.79 85.7361 431.894 77.381 435.327C77.1702 435.394 76.9936 435.539 76.8879 435.733C76.7822 435.928 76.7558 436.155 76.8142 436.368C76.8725 436.581 77.0111 436.764 77.2009 436.877C77.3907 436.99 77.617 437.026 77.8323 436.976C86.3883 433.975 125.716 419.564 127.517 418.812C141.092 435.404 163.268 442.11 189.212 432.624C221.479 420.826 236.828 396.5 284.83 382.937C288.302 381.945 291.75 381.178 295.189 379.936C296.397 379.499 296.392 377.096 294.741 377.233Z" fill="#191919"/>
<path d="M100.192 459.792C98.8264 465.075 95.8271 469.792 91.6221 473.269C87.4171 476.746 82.2212 478.806 76.7758 479.156C64.6239 480.292 53.2407 475.061 43.901 467.597C32.5458 458.41 24.2295 446.008 20.0409 432.016C15.3537 416.866 13.9649 398.953 21.6926 384.432C24.3021 379.488 27.8796 375.119 32.2121 371.586C36.5446 368.053 41.5436 365.427 46.9117 363.866C35.407 373.627 30.9157 414.319 54.8675 444.466C62.377 453.919 74.095 463.765 86.8397 461.578C94.4458 460.271 98.8801 454.738 98.0989 446.417C97.9185 442.411 96.6747 438.525 94.4954 435.158C94.3308 434.859 94.0618 434.631 93.7398 434.518C93.4178 434.405 93.0654 434.414 92.7497 434.544C92.4341 434.674 92.1775 434.916 92.0287 435.223C91.88 435.53 91.8497 435.882 91.9435 436.21C92.8562 441.371 98.9074 454.237 87.5911 457.374C69.0978 462.503 38.4871 429.598 41.2151 388.775C41.664 382.019 42.7651 374.547 46.4678 368.96C54.7659 356.441 68.2298 365.046 75.1391 378.88C75.4391 379.624 76.7982 379.026 76.4907 378.279C74.2783 372.123 70.3127 366.749 65.0827 362.819C56.7127 357.028 35.3822 359.099 21.8513 377.228C11.4576 391.163 10.7136 409.964 14.4956 426.315C22.94 462.837 51.6262 483.015 73.3386 482.754C85.0467 482.615 97.0548 476.75 101.258 465.193C101.799 463.631 102.2 462.023 102.459 460.39C102.498 460.241 102.508 460.086 102.487 459.933C102.466 459.781 102.416 459.634 102.338 459.501C102.261 459.368 102.158 459.251 102.035 459.158C101.913 459.065 101.773 458.997 101.624 458.958C101.475 458.918 101.32 458.909 101.168 458.929C101.015 458.95 100.868 459.001 100.735 459.078C100.602 459.156 100.486 459.259 100.393 459.381C100.299 459.504 100.231 459.643 100.192 459.792Z" fill="#191919"/>
<path d="M359.888 200.855C360.079 203.105 363.759 203.261 363.491 200.855C361.661 184.453 356.269 157.378 350.28 149.068C350.197 148.946 350.075 148.855 349.934 148.81C349.793 148.765 349.641 148.769 349.502 148.821C349.364 148.873 349.247 148.97 349.17 149.097C349.094 149.224 349.062 149.372 349.08 149.519C352.254 167.928 358.417 183.565 359.888 200.855Z" fill="#191919"/>
<path d="M195.518 139.311C173.724 154.618 147.121 153.609 131.423 168.575C133.848 176.251 133.486 178.895 136.383 178.483C155.898 173.379 175.237 167.874 194.777 163.172C199.873 161.932 204.992 160.806 210.086 159.568C210.657 159.369 211.137 158.972 211.44 158.448C211.744 157.925 211.849 157.31 211.737 156.716C209.637 148.16 207.385 139.604 204.833 131.048C202.086 134.182 198.957 136.958 195.518 139.311Z" fill="#2D4F7E"/>
<path d="M173.754 131.356C182.325 126.111 192.143 121.436 198.67 112.741C197.277 109.395 196.096 104.639 192.666 105.236C124.451 117.12 152.607 112.046 116.863 118.145C113.639 118.695 115.928 119.603 127.97 157.175C137.95 146.531 159.434 140.12 173.754 131.356Z" fill="#2D4F7E"/>
<path d="M159.494 203.707C166.852 204.585 172.142 210.651 179.158 212.715C181.115 213.356 183.187 213.567 185.234 213.334C187.28 213.101 189.252 212.428 191.015 211.363C195.407 208.417 195.957 202.8 198.522 198.603C202.105 192.738 207.946 189.656 214.582 192.899C217.713 194.769 220.547 197.097 222.989 199.806C223.273 200.061 223.636 200.209 224.017 200.224C224.398 200.239 224.772 200.121 225.075 199.889C225.378 199.658 225.59 199.328 225.675 198.956C225.76 198.584 225.713 198.195 225.541 197.854C222.813 192.909 215.237 187.295 208.278 187.796C205.741 188.109 203.31 189.004 201.176 190.41C199.041 191.816 197.259 193.696 195.97 195.903C193.45 199.677 192.649 206.527 188.463 208.799C187.107 209.433 185.637 209.786 184.141 209.837C182.645 209.889 181.154 209.638 179.758 209.099C172.41 206.676 166.401 199.975 158.142 200.543C151.238 201.019 145.082 208.05 147.334 214.954C147.634 215.698 148.835 215.554 148.686 214.803C148.509 213.328 148.665 211.833 149.141 210.426C149.618 209.019 150.403 207.737 151.439 206.673C152.475 205.609 153.737 204.791 155.13 204.277C156.524 203.764 158.015 203.569 159.494 203.707Z" fill="#191919"/>
<path d="M247.306 201.755C247.906 202.499 249.257 202.056 249.557 201.155C251.008 195.836 231.143 127.437 220.293 95.48C220.228 95.2886 220.09 95.13 219.91 95.0375C219.73 94.9449 219.522 94.9257 219.328 94.9837C219.134 95.0417 218.97 95.1725 218.87 95.3487C218.77 95.5249 218.743 95.7328 218.793 95.9289C248.689 201.897 244.233 198.683 247.306 201.755Z" fill="#191919"/>
<path d="M250.309 108.54C258.865 110.189 269.521 107.478 278.085 106.137C284.838 105.078 291.593 103.736 298.349 102.236C301.05 101.633 305.541 101.306 307.805 99.8324C310.635 97.9972 308.852 96.2141 306.154 96.8316C285.671 101.511 253.466 105.76 250.463 106.888C250.268 106.908 250.087 106.995 249.949 107.134C249.811 107.273 249.726 107.456 249.708 107.651C249.69 107.846 249.74 108.041 249.849 108.203C249.959 108.365 250.121 108.484 250.309 108.54Z" fill="#191919"/>
<path d="M263.817 168.432C276.198 166.971 321.078 157.547 326.561 154.623C327.449 154.149 328.213 152.391 326.561 152.371C318.685 152.314 265.871 165.88 263.515 166.631C262.615 166.919 262.617 168.573 263.817 168.432Z" fill="#191919"/>
<path d="M268.621 188.696C289.342 188.473 310.913 181.648 330.621 176.239C332.868 175.621 337.069 173.285 332.873 172.635C330.145 172.214 328.523 173.518 313.058 177.139C298.178 180.611 282.886 182.843 268.17 187.047C267.421 187.195 267.572 188.708 268.621 188.696Z" fill="#191919"/>
<path d="M433.891 32.8847C433.94 32.9936 434.013 33.09 434.104 33.1666C434.196 33.2432 434.304 33.298 434.419 33.3269C434.535 33.3558 434.656 33.358 434.773 33.3334C434.89 33.3088 434.999 33.258 435.094 33.1848C436.086 32.5177 435.205 32.1333 432.39 24.6288C432.352 24.5071 432.272 24.4029 432.164 24.3348C432.056 24.2667 431.928 24.2391 431.802 24.257C431.675 24.2749 431.559 24.337 431.475 24.4324C431.39 24.5278 431.342 24.6501 431.339 24.7776C431.75 27.5992 432.611 30.3365 433.891 32.8847Z" fill="#191919"/>
<path d="M442.147 31.682C442.242 31.7433 442.35 31.7804 442.462 31.7901C442.575 31.7997 442.688 31.7815 442.792 31.7372C442.896 31.6929 442.987 31.6237 443.058 31.5358C443.129 31.448 443.177 31.344 443.198 31.2331C443.424 30.1023 442.95 31.4315 440.946 22.8259C440.908 22.7041 440.828 22.5998 440.72 22.5317C440.612 22.4636 440.483 22.4363 440.356 22.4545C440.23 22.4727 440.114 22.5352 440.03 22.631C439.945 22.7268 439.897 22.8495 439.895 22.9772C439.895 25.3952 440.976 30.8041 442.147 31.682Z" fill="#191919"/>
<path d="M447.392 28.8299C447.392 29.0273 447.47 29.2165 447.61 29.356C447.749 29.4956 447.939 29.5739 448.136 29.5739C448.333 29.5739 448.523 29.4956 448.662 29.356C448.802 29.2165 448.88 29.0273 448.88 28.8299C448.728 26.2636 448.428 23.7082 447.98 21.1767C447.98 20.574 446.928 20.4327 446.928 21.1767C447.251 23.7286 447.102 26.2879 447.392 28.8299Z" fill="#191919"/>
<path d="M456.107 29.5815C457.793 29.5815 457.143 26.5187 456.709 20.8742C456.7 20.7214 456.632 20.578 456.52 20.4732C456.409 20.3685 456.261 20.3102 456.108 20.3102C455.955 20.3102 455.807 20.3685 455.696 20.4732C455.584 20.578 455.516 20.7214 455.507 20.8742C455.507 22.6771 455.358 24.4776 455.206 26.2781C455.058 27.1808 454.606 29.5815 456.107 29.5815Z" fill="#191919"/>
<path d="M459.71 31.3819C460.891 30.9541 462.044 30.453 463.162 29.8815C463.75 24.6968 463.801 19.4651 463.314 14.2699C462.292 12.3033 458.063 13.702 456.407 13.9698C448.281 15.1189 440.253 16.8756 432.39 19.225C430.741 19.6813 423.383 20.8742 423.383 23.4286C423.402 25.0772 423.637 26.7162 424.08 28.3042C423.867 27.2527 421.03 27.6545 419.924 27.9298C419.183 28.2194 418.537 28.7102 418.06 29.3468C417.583 29.9835 417.293 30.7407 417.223 31.5332C417.223 38.1746 427.302 32.7955 424.427 31.682C423.683 31.3918 422.939 32.2846 422.475 32.5847C421.575 33.1849 420.397 33.6189 419.623 32.5847C417.577 29.8394 422.327 29.2814 423.527 28.9813C423.968 28.835 424.115 28.582 424.085 28.3414C424.752 31.5431 425.728 34.6726 426.999 37.6861C390.96 43.4868 354.675 34.7522 327.176 30.7818C297 26.4269 288.24 30.6131 273.737 41.4458C263.44 49.1338 246.123 64.175 237.033 72.8128C147.773 90.9813 110.286 101.107 86.552 106.588C107.406 155.372 117.011 207.911 126.619 260.152C202.056 237.621 278.615 219.032 355.984 204.461C357.187 202.958 353.727 201.718 351.632 202.06C276.168 214.374 202.125 234.184 129.176 256.849C120.464 206.41 111.6 155.072 89.3916 108.84C166.548 91.4269 243.954 75.2151 321.611 60.2045C324.763 69.5119 329.57 88.3029 331.068 88.1243C335.43 87.6035 328.903 70.0724 325.212 61.8537C324.573 59.8136 323.177 58.0955 321.311 57.0524C318.861 56.0926 317.385 56.9854 296.841 60.9534C277.951 64.604 260.822 67.9917 245.16 71.1562C247.757 68.4852 253.213 62.9498 256.32 60.3533C280.885 39.7916 287.896 33.3858 305.556 32.7335C332.233 31.7415 381.796 50.3192 429.246 39.489C437.065 39.489 448.652 114.013 448.91 114.092C455.255 115.887 461.987 115.783 468.274 113.792C467.678 116.504 466.263 118.967 464.221 120.848C461.661 122.788 458.465 123.696 455.267 123.39C452.07 123.084 449.104 121.587 446.958 119.196C444.824 116.765 443.369 113.814 442.742 110.64C442.442 109.896 441.254 110.04 441.254 110.789C441.254 122.128 456.112 130.351 465.722 122.348C467.175 121.217 468.37 119.788 469.225 118.157C470.081 116.526 470.577 114.731 470.682 112.892C475.105 111.512 479.419 109.806 483.59 107.788C484.344 107.431 465.828 46.6761 459.71 31.3819ZM428.638 36.3419C428.187 34.2389 425.635 25.0827 425.635 24.3313C425.635 23.4335 425.786 23.5873 426.686 23.2822C431.949 21.5041 461.511 15.6265 461.511 15.3264C461.511 15.6265 461.362 25.5341 461.362 28.086C450.828 32.149 439.84 34.9195 428.638 36.337V36.3419Z" fill="#191919"/>
<path d="M336.02 352.465C358.36 352.777 383.108 358.509 406.571 361.472C419.73 363.134 413.255 363.005 451.606 331.75C451.779 331.572 451.905 331.353 451.97 331.113C452.035 330.874 452.037 330.621 451.977 330.38C451.917 330.139 451.795 329.918 451.625 329.737C451.454 329.557 451.24 329.423 451.003 329.349C442.283 328.025 405.867 322.236 375.348 318.841C368.652 318.097 365.924 321.74 356.284 330.7C335.663 349.863 332.526 352.408 336.02 352.465ZM373.848 321.093C386.456 321.589 446.512 332.501 447.402 331.757C441.847 336.412 417.218 358.278 414.227 359.077C412.027 359.402 409.784 359.3 407.623 358.777C395.776 357.182 339.624 349.172 338.723 349.92C360.803 330.462 366.631 320.808 373.848 321.093Z" fill="#2D4F7E"/>
<path d="M331.516 375.281C411.454 381.55 410.16 382.017 415.278 379.785C421.439 377.099 425.446 371.038 430.439 366.725C436.427 361.631 442.691 356.87 449.202 352.465C450.713 351.428 449.371 349.038 447.851 350.064C418.418 369.934 419.351 376.69 410.926 378.133C405.817 379.011 400.262 377.684 395.163 377.389C383.906 377.389 372.201 375.527 360.939 374.686C352.237 374.039 343.527 373.485 334.971 372.885C338.858 369.852 342.52 366.541 345.928 362.978C346.379 362.529 345.779 361.777 345.328 362.234C340.333 365.979 341.059 364.828 330.767 373.19C329.567 373.781 330.467 375.132 331.516 375.281Z" fill="#2D4F7E"/>
<path d="M329.416 398.7C343.115 400.778 390.111 402.625 404.019 402.752C407.599 402.942 411.126 401.821 413.939 399.6C419.7 395.056 440.475 376.883 443.511 373.029C445.755 370.172 440.813 372.285 440.207 372.729C409.393 395.411 421.243 399.942 393.675 399.449C389.459 399.374 336.333 396.597 332.58 396.448C335.479 393.952 338.235 391.296 340.836 388.492C341.288 387.892 340.688 386.992 340.092 387.44C336.29 390.255 332.633 393.262 329.136 396.448C328.352 397.048 328.221 398.519 329.416 398.7Z" fill="#2D4F7E"/>
<path d="M446.35 380.236C443.511 380.888 446.951 383.237 448.151 383.388C441.104 389.714 433.737 395.674 426.079 401.244C419.931 405.904 413.168 413.215 405.063 413.552C398.906 413.8 379.45 412.226 363.933 411.901C363.754 411.898 363.577 411.931 363.412 411.998C363.247 412.064 363.097 412.164 362.971 412.29C362.845 412.416 362.746 412.566 362.679 412.732C362.613 412.897 362.58 413.074 362.583 413.252C362.532 414.523 362.223 415.771 361.677 416.919C361.13 418.068 360.356 419.094 359.403 419.935C358.449 420.777 357.335 421.417 356.127 421.816C354.919 422.216 353.643 422.367 352.376 422.26C349.749 421.807 347.353 420.477 345.58 418.486C343.808 416.496 342.763 413.962 342.617 411.301C342.617 410.557 342.017 410.1 341.268 409.949C329.86 409.205 318.601 408.3 307.193 407.248C307.909 406.172 324.042 394.9 325.049 394.189C326.537 393.137 325.071 390.766 323.697 391.788C318.082 395.962 312.004 399.761 306.434 404.245C302.322 407.558 304.388 409.346 306.134 438.171C306.133 438.349 306.168 438.525 306.235 438.689C306.303 438.853 306.403 439.002 306.528 439.128C306.654 439.253 306.803 439.352 306.967 439.42C307.132 439.487 307.308 439.522 307.485 439.521C334.205 441.472 401.16 446.465 407.759 447.027C409.157 447.318 410.603 447.279 411.984 446.914C413.364 446.549 414.641 445.868 415.713 444.924C416.876 444.037 441.388 423.81 450.239 416.404C451.301 415.517 453.24 414.453 453.54 413.101C453.852 411.08 456.499 383.143 455.343 380.829C453.609 378.738 449.016 379.624 446.35 380.236Z" fill="#191919"/>
<path d="M25.4448 280.113C27.0965 281.465 51.9312 297.496 62.9721 305.03C63.3005 305.211 63.6691 305.306 64.044 305.307C64.4189 305.308 64.7879 305.214 65.117 305.035C65.4462 304.855 65.7249 304.596 65.9273 304.28C66.1298 303.965 66.2495 303.604 66.2755 303.23C65.9754 297.526 64.8049 254.386 61.1717 252.494C60.2789 252.027 55.0163 260.149 45.8601 264.502C38.4201 232.059 50.8524 202.75 75.883 181.791C77.0833 180.891 75.5656 179.063 74.3801 179.691C44.3349 195.672 30.4469 237.745 40.0073 269.606C35.7214 273.05 30.7602 275.556 25.4448 276.961C22.7441 277.264 23.808 278.752 25.4448 280.113Z" fill="#2D4F7E"/>
<path d="M371.447 338.205C377.3 338.813 384.055 340.744 390.059 341.057C395.615 341.347 401.467 332.253 396.815 331.449C376.013 327.856 375.844 325.587 369.947 333.552C368.605 335.36 368.595 337.91 371.447 338.205Z" fill="#2D4F7E"/>
<path d="M409.274 338.356C410.931 338.624 420.434 342.118 420.831 339.705C421.352 336.566 411.226 336.405 409.574 336.253C408.523 336.253 408.225 338.185 409.274 338.356Z" fill="#2D4F7E"/>
<path d="M400.118 347.061C402.147 349.092 408.205 349.774 411.075 349.464C413.944 349.154 410.926 347.361 410.175 346.912C407.323 345.409 403.419 345.861 400.255 345.409C398.315 345.261 399.367 346.312 400.118 347.061Z" fill="#2D4F7E"/>
<path d="M357.336 345.561C365.19 341.521 369.488 351.143 380.303 348.864C382.04 348.408 383.638 347.532 384.956 346.312C386.458 343.158 379.996 345.568 378.351 345.71C375.493 346.072 372.595 345.493 370.095 344.06C368.088 342.783 365.748 342.13 363.37 342.184C360.992 342.237 358.683 342.995 356.736 344.36C355.984 344.968 356.587 345.861 357.336 345.561Z" fill="#2D4F7E"/>
<path d="M387.807 133.756C407.561 132.484 426.111 123.43 435.394 107.188C435.994 106.288 434.65 105.236 433.891 105.988C428.782 112.511 422.417 117.945 415.172 121.967C407.927 125.989 399.95 128.518 391.711 129.404C376.789 131.296 361.264 127.298 345.476 130.455C329.689 133.613 316.309 144.172 300.445 145.916C281.673 147.979 278.328 132.65 296.392 119.948C325.408 99.5373 366.231 93.9523 390.359 67.4089C390.439 67.3293 390.484 67.2214 390.484 67.1088C390.484 66.9963 390.439 66.8883 390.359 66.8087C390.28 66.7292 390.172 66.6844 390.059 66.6844C389.947 66.6844 389.839 66.7292 389.759 66.8087C367.915 87.9755 336.288 95.1155 309.752 108.388C261.218 132.655 277.896 162.12 322.06 142.915C332.543 138.354 342.761 133.31 354.335 132.856C365.584 132.417 376.697 134.473 387.807 133.756Z" fill="#191919"/>
<path d="M297.744 352.316C289.865 351.386 249.649 365.974 237.098 371.38C236.649 371.529 236.947 372.424 237.4 372.28C267.185 362.874 295.405 356.602 298.044 354.717C298.793 354.117 298.944 352.458 297.744 352.316Z" fill="#191919"/>
<path d="M231.384 349.164C230.64 349.464 230.935 350.652 231.684 350.513C263.676 339.849 287.013 338.302 290.527 337.005C290.863 336.902 291.15 336.681 291.336 336.383C291.521 336.086 291.594 335.731 291.539 335.384C291.485 335.037 291.307 334.722 291.038 334.496C290.77 334.27 290.429 334.148 290.078 334.153C286.638 333.781 260.648 337.372 231.384 349.164Z" fill="#191919"/>
<path d="M144.182 377.984C144.003 378.044 143.855 378.172 143.77 378.341C143.685 378.51 143.671 378.705 143.731 378.884C143.79 379.064 143.919 379.212 144.088 379.297C144.256 379.381 144.452 379.395 144.631 379.336C153.01 376.912 161.79 376.197 170.45 377.233C184.304 378.679 192.299 384.043 195.069 384.44C196.118 384.588 196.28 383.232 195.813 382.637C193.673 379.867 170.202 369.083 144.182 377.984Z" fill="#191919"/>
</svg>
