<svg width="282" height="280" viewBox="0 0 282 280" fill="none" xmlns="http://www.w3.org/2000/svg">
<rect width="282" height="280" rx="8" fill="#E53238"/>
<g clip-path="url(#clip0_0_1)">
<path d="M63.2066 116.366C48.4046 116.366 36.0701 122.629 36.0701 141.524C36.0701 156.493 44.3642 165.919 63.5888 165.919C86.2171 165.919 87.6677 151.053 87.6677 151.053H76.7032C76.7032 151.053 74.3523 159.058 62.92 159.058C53.6086 159.058 46.9115 152.785 46.9115 143.992H88.8143V138.474C88.8143 129.776 83.2773 116.366 63.2066 116.366ZM62.8244 123.418C71.6879 123.418 77.7304 128.833 77.7304 136.95H47.154C47.154 128.333 55.0411 123.418 62.8244 123.418Z" fill="white"/>
<path d="M88.8065 98.0699V156.43C88.8065 159.743 88.5695 164.394 88.5695 164.394H99.0273C99.0273 164.394 99.4026 161.054 99.4026 158C99.4026 158 104.569 166.062 118.618 166.062C133.413 166.062 143.462 155.818 143.462 141.143C143.462 127.49 134.231 116.509 118.642 116.509C104.044 116.509 99.5083 124.371 99.5083 124.371V98.0699H88.8065ZM115.943 123.728C125.989 123.728 132.378 131.164 132.378 141.143C132.378 151.843 124.999 158.843 116.015 158.843C105.292 158.843 99.5083 150.494 99.5083 141.238C99.5083 132.613 104.698 123.728 115.943 123.728Z" fill="white"/>
<path d="M169.452 116.366C147.183 116.366 145.755 128.527 145.755 130.47H156.839C156.839 130.47 157.42 123.37 168.687 123.37C176.009 123.37 181.682 126.713 181.682 133.138V135.425H168.687C151.435 135.425 142.315 140.458 142.315 150.672C142.315 160.724 150.742 166.193 162.13 166.193C177.65 166.193 182.65 157.64 182.65 157.64C182.65 161.042 182.913 164.394 182.913 164.394H192.766C192.766 164.394 192.384 160.239 192.384 157.581V134.603C192.384 119.537 180.199 116.366 169.452 116.366ZM181.682 142.286V145.336C181.682 149.313 179.221 159.201 164.734 159.201C156.8 159.201 153.399 155.252 153.399 150.672C153.399 142.34 164.854 142.286 181.682 142.286Z" fill="white"/>
<path d="M186.415 118.274H198.885L216.78 154.03L234.634 118.274H245.93L213.408 181.93H201.56L210.944 164.185L186.415 118.274Z" fill="white"/>
</g>
<defs>
<clipPath id="clip0_0_1">
<rect width="210" height="84" fill="white" transform="translate(36 98)"/>
</clipPath>
</defs>
</svg>
