<svg width="282" height="280" viewBox="0 0 282 280" fill="none" xmlns="http://www.w3.org/2000/svg">
<rect width="282" height="280" rx="8" fill="#E50914"/>
<g clip-path="url(#clip0_0_203)">
<path d="M241.029 138.797L253 170.48C249.491 169.999 245.914 169.312 242.337 168.762L235.595 151.236L228.646 167.319C225.275 166.769 221.904 166.563 218.464 166.15L230.641 138.453L219.634 110H229.885L236.076 125.876L242.681 110H253L241.029 138.797ZM211.585 110H202.297V164.913C205.324 165.119 208.489 165.257 211.585 165.6V110ZM194.317 164.295C185.855 163.745 177.393 163.195 168.794 163.057V110H178.219V154.123C183.654 154.26 189.088 154.673 194.317 154.948V164.295ZM158.681 131.512V140.927H145.747V162.439H136.391V110H162.877V119.416H145.747V131.443H158.681V131.512ZM120.499 119.416V162.92C117.334 162.92 114.101 162.92 111.005 163.057V119.416H101.236V110H130.337V119.416H120.499ZM91.0541 141.408C86.9263 141.408 81.973 141.408 78.4644 141.615V155.635C84.0369 155.223 89.5405 154.81 95.1818 154.604V163.676L69.0393 165.738V110H95.1818V119.416H78.4644V132.13C82.1106 132.13 87.7518 131.924 91.0541 131.924V141.408ZM38.6314 136.116V169.105C35.2604 169.518 32.2334 169.999 29 170.48V110H38.0123L50.3268 144.364V110H59.8206V166.563C56.4496 167.112 53.0786 167.319 49.5012 167.8L38.6314 136.116Z" fill="white"/>
</g>
<defs>
<clipPath id="clip0_0_203">
<rect width="224" height="60.48" fill="white" transform="translate(29 110)"/>
</clipPath>
</defs>
</svg>
