<svg width="282" height="280" viewBox="0 0 282 280" fill="none" xmlns="http://www.w3.org/2000/svg">
<mask id="mask0_0_1" style="mask-type:alpha" maskUnits="userSpaceOnUse" x="0" y="0" width="282" height="280">
<rect width="282" height="280" rx="8" fill="white"/>
</mask>
<g mask="url(#mask0_0_1)">
<g filter="url(#filter0_f_0_1)">
<path d="M-157.452 -495.188C-164.907 -490.112 -168.833 -477.639 -167.707 -458.23L-127.146 240.982C-126.02 260.392 -120.324 278.42 -111.743 292.754L-109.605 296.222L207.62 100.606L207.084 91.363L-155.608 -496.804L-157.452 -495.188Z" fill="url(#paint0_linear_0_1)"/>
<path d="M328.258 296.66L207.619 100.604L207.083 91.3616L312.95 26.0792L315.462 29.3164L454.856 194.66C494.789 241.835 497.175 282.966 460.164 286.163L330.957 296.431L328.258 296.66Z" fill="url(#paint1_linear_0_1)"/>
<path d="M330.957 296.43L207.351 95.9815L-111.744 292.751C-98.4318 315.177 -77.0504 329.755 -54.71 327.466L330.957 296.43Z" fill="url(#paint2_linear_0_1)"/>
<path d="M315.489 29.7783L-100.633 -464.172C-125.17 -493.078 -145.91 -503.265 -157.453 -495.19L207.378 96.4447L315.489 29.7783Z" fill="url(#paint3_linear_0_1)"/>
</g>
</g>
<path d="M91.3879 194.056C91.3948 194.848 91.6106 195.625 92.0136 196.307C92.4166 196.989 92.9925 197.552 93.6831 197.94C94.3737 198.328 95.1545 198.527 95.9466 198.517C96.7386 198.506 97.514 198.287 98.1942 197.881L192.582 143.825C193.276 143.456 193.857 142.905 194.262 142.231C194.667 141.558 194.881 140.786 194.881 140C194.881 139.214 194.667 138.442 194.262 137.769C193.857 137.095 193.276 136.544 192.582 136.175L98.1942 82.1187C97.514 81.7127 96.7386 81.4934 95.9466 81.4831C95.1545 81.4727 94.3737 81.6716 93.6831 82.0597C92.9925 82.4478 92.4166 83.0113 92.0136 83.6933C91.6106 84.3753 91.3948 85.1516 91.3879 85.9437V194.056Z" stroke="white" stroke-width="6.75" stroke-linecap="round" stroke-linejoin="round"/>
<path d="M92.7371 82.7376L167.943 157.944" stroke="white" stroke-width="6.75" stroke-linecap="round" stroke-linejoin="round"/>
<path d="M92.7371 197.263L167.943 122.056" stroke="white" stroke-width="6.75" stroke-linecap="round" stroke-linejoin="round"/>
<defs>
<filter id="filter0_f_0_1" x="-193.854" y="-523.82" width="706.246" height="877.478" filterUnits="userSpaceOnUse" color-interpolation-filters="sRGB">
<feFlood flood-opacity="0" result="BackgroundImageFix"/>
<feBlend mode="normal" in="SourceGraphic" in2="BackgroundImageFix" result="shape"/>
<feGaussianBlur stdDeviation="12.9783" result="effect1_foregroundBlur_0_1"/>
</filter>
<linearGradient id="paint0_linear_0_1" x1="156.16" y1="-278.597" x2="-273.43" y2="-13.6918" gradientUnits="userSpaceOnUse">
<stop stop-color="#00A0FF"/>
<stop offset="0.007" stop-color="#00A1FF"/>
<stop offset="0.26" stop-color="#00BEFF"/>
<stop offset="0.512" stop-color="#37B4EA"/>
<stop offset="0.76" stop-color="#36B4E7"/>
<stop offset="1" stop-color="#2CB3EB"/>
</linearGradient>
<linearGradient id="paint1_linear_0_1" x1="507.146" y1="269.293" x2="-132.237" y2="306.383" gradientUnits="userSpaceOnUse">
<stop stop-color="#FFE000"/>
<stop offset="0.409" stop-color="#FFBD00"/>
<stop offset="0.775" stop-color="#FFA500"/>
<stop offset="1" stop-color="#FF9C00"/>
</linearGradient>
<linearGradient id="paint2_linear_0_1" x1="264.376" y1="199.392" x2="-318.177" y2="558.622" gradientUnits="userSpaceOnUse">
<stop stop-color="#FF3A44"/>
<stop offset="1" stop-color="#C31162"/>
</linearGradient>
<linearGradient id="paint3_linear_0_1" x1="-257.084" y1="-777.962" x2="40.336" y2="-295.644" gradientUnits="userSpaceOnUse">
<stop stop-color="#32A071"/>
<stop offset="0.069" stop-color="#2DA771"/>
<stop offset="0.476" stop-color="#69AE05"/>
<stop offset="0.801" stop-color="#559C18"/>
<stop offset="1" stop-color="#76CC2D"/>
</linearGradient>
</defs>
</svg>
