<svg width="496" height="496" viewBox="0 0 496 496" fill="none" xmlns="http://www.w3.org/2000/svg">
<path d="M124.729 321.852C112.542 295.864 101.169 267.48 90.339 240.967C90.2319 240.707 90.0708 240.473 89.8664 240.28C89.662 240.087 89.4188 239.939 89.1532 239.847C88.8875 239.755 88.6053 239.721 88.3253 239.746C88.0453 239.772 87.7739 239.856 87.5291 239.995C63.736 253.592 42.2567 262.156 12.4 278.541C12.152 278.67 54.4236 362.303 54.6716 362.159C80.1065 347.813 100.829 333.176 123.645 324.53C123.899 324.434 124.131 324.287 124.325 324.097C124.519 323.908 124.672 323.68 124.773 323.428C124.875 323.177 124.924 322.907 124.916 322.635C124.909 322.364 124.845 322.097 124.729 321.852Z" fill="#191919"/>
<path d="M107.644 242.852C103.545 244.419 99.5174 245.565 95.5866 247.224C95.3012 247.353 94.9761 247.364 94.6828 247.253C94.3896 247.143 94.1522 246.92 94.023 246.635C93.8938 246.349 93.8832 246.024 93.9937 245.731C94.1041 245.438 94.3265 245.2 94.612 245.071C98.8751 243.005 96.219 244.149 107.885 238.819C108.329 238.624 108.832 238.613 109.284 238.788C109.735 238.963 110.099 239.311 110.296 239.754C122.299 266.221 128.896 279.399 139.874 306.466C140.056 306.905 140.062 307.398 139.889 307.841C139.717 308.284 139.38 308.643 138.949 308.844C136.646 309.886 127.293 313.66 124.97 314.65C124.658 314.79 124.303 314.8 123.983 314.679C123.663 314.557 123.405 314.314 123.265 314.001C123.125 313.689 123.114 313.334 123.236 313.015C123.357 312.695 123.601 312.437 123.913 312.296L135.78 306.28C133.198 300.1 109.452 247.008 107.644 242.852Z" fill="#191919"/>
<path d="M124 233.529C128.191 210.398 145.239 189.417 161.562 181.328C164.867 179.74 168.317 178.474 171.864 177.546C172.027 177.497 172.198 177.481 172.367 177.498C172.536 177.515 172.7 177.565 172.85 177.646C172.999 177.726 173.132 177.836 173.239 177.967C173.347 178.099 173.427 178.251 173.476 178.414C173.525 178.577 173.541 178.747 173.524 178.917C173.507 179.086 173.456 179.25 173.376 179.399C173.295 179.549 173.186 179.681 173.054 179.789C172.922 179.896 172.771 179.977 172.608 180.026C169.346 181.165 166.218 182.656 163.278 184.472C154.165 189.986 146.284 197.316 140.124 206.005C133.964 214.694 129.658 224.558 127.472 234.982C127.207 236.443 126.093 236.609 115.308 241.584C115.031 241.732 114.708 241.764 114.408 241.674C114.108 241.583 113.856 241.377 113.708 241.101C113.56 240.824 113.528 240.501 113.619 240.201C113.709 239.901 113.915 239.649 114.192 239.501L124 233.529Z" fill="#191919"/>
<path d="M153.733 204.6C155.308 202.884 158.197 200.223 158.564 199.863C167.743 190.931 178.921 184.316 191.168 180.569C191.501 180.487 191.787 180.277 191.965 179.984C192.142 179.691 192.196 179.34 192.114 179.008C192.033 178.675 191.823 178.389 191.53 178.211C191.237 178.034 190.886 177.98 190.553 178.062C177.241 180.633 165.093 187.377 155.87 197.316C154.333 199.149 152.976 201.126 151.818 203.219C151.659 203.473 151.602 203.779 151.66 204.074C151.717 204.368 151.885 204.63 152.128 204.806C152.372 204.982 152.673 205.058 152.971 205.02C153.269 204.982 153.541 204.832 153.733 204.6Z" fill="#191919"/>
<path d="M167.705 208.957C176.766 200.577 187.181 193.793 198.509 188.894C198.822 188.775 199.077 188.539 199.219 188.236C199.362 187.933 199.38 187.586 199.271 187.269C199.162 186.952 198.934 186.69 198.636 186.539C198.337 186.387 197.991 186.357 197.671 186.456C185.854 189.214 172.09 198.016 165.927 207.402C165.741 207.641 165.654 207.941 165.682 208.242C165.711 208.543 165.854 208.821 166.081 209.02C166.309 209.219 166.604 209.323 166.906 209.312C167.208 209.3 167.494 209.173 167.705 208.957Z" fill="#191919"/>
<path d="M152.656 280.379C145.884 283.687 145.74 283.759 138.272 286.867C137.993 287.007 137.668 287.03 137.371 286.932C137.074 286.833 136.828 286.621 136.688 286.341C136.547 286.061 136.524 285.737 136.622 285.44C136.721 285.142 136.934 284.897 137.213 284.756C142.094 281.606 147.153 278.739 152.364 276.17C152.778 275.968 153.251 275.918 153.698 276.031C154.145 276.144 154.538 276.411 154.807 276.785C162.12 286.971 177.03 288.139 189.425 285.443C192.584 284.822 195.668 283.864 198.623 282.586C198.924 282.443 199.268 282.421 199.584 282.525C199.9 282.629 200.164 282.851 200.32 283.145C200.477 283.439 200.514 283.782 200.423 284.102C200.333 284.423 200.123 284.696 199.836 284.865C185.35 293.615 162.996 292.863 152.656 280.379Z" fill="#191919"/>
<path d="M189.291 248.523C192.922 261.751 197.611 274.666 203.313 287.142C206.537 294.416 209.887 301.774 216.953 305.494C224.599 309.504 232.56 306.883 240.694 304.217C253.203 300.115 288.441 283.191 294.669 280.944C299.971 279.032 316.493 271.52 319.407 266.721C323.02 260.809 321.177 253.736 318.911 247.229C312.834 232.334 306.002 217.758 298.443 203.558C294.634 197.13 290.133 191.577 282.703 190.957C272.651 190.119 263.185 196.719 254.827 200.952C241.024 207.945 228.844 212.457 215.257 220.678C214.963 220.853 214.75 221.137 214.666 221.469C214.582 221.801 214.633 222.152 214.808 222.446C214.983 222.74 215.267 222.953 215.599 223.037C215.93 223.121 216.282 223.07 216.576 222.895C228.041 216.162 243.918 210.297 256.444 204.213C264.222 200.436 273.596 194.045 282.373 194.811C288.369 195.33 291.995 200.352 295.078 205.555C298.411 211.189 312.239 240.099 315.166 248.528C316.966 253.701 318.861 259.988 316.009 264.648C313.618 266.952 310.896 268.887 307.934 270.387C303.237 273.016 298.353 275.297 293.322 277.212C280.88 281.706 240.622 302.912 226.637 303.664C223.932 303.851 221.224 303.324 218.786 302.135C216.349 300.946 214.267 299.136 212.749 296.888C207.752 290.383 195.885 262.776 191.563 247.891C191.46 247.612 191.256 247.382 190.992 247.247C190.727 247.111 190.422 247.081 190.135 247.16C189.849 247.24 189.603 247.424 189.447 247.677C189.291 247.929 189.235 248.232 189.291 248.523Z" fill="#191919"/>
<path d="M256.635 251.854C261.657 249.706 265.167 247.737 270.613 245.203C275.198 243.07 281.606 240.26 284.719 238.544C288.58 236.411 290.001 235.684 289.396 234.407C288.697 232.919 286.822 233.993 283.02 235.384C279.347 236.726 250.118 249.272 252.134 252.633C252.834 253.821 254.215 252.886 256.635 251.854Z" fill="#2D4F7E"/>
<path d="M260.102 262.838C264.671 260.931 267.966 258.972 273.15 256.377C277.629 254.145 283.486 251.353 286.182 249.778C289.919 247.603 291.122 246.946 290.539 245.716C289.885 244.367 288.459 245.111 284.439 246.646C275.483 250.464 266.825 254.946 258.538 260.055C256.462 261.563 255.103 262.379 255.755 263.49C256.338 264.509 257.201 264.048 260.102 262.838Z" fill="#2D4F7E"/>
<path d="M259.802 277.204C261.828 276.23 295.844 258.379 296.571 257.962C299.931 256.043 301.442 255.527 300.787 254.143C300.115 252.722 298.399 253.503 291.772 256.4C279.504 262.006 267.596 268.372 256.12 275.459C253.238 277.443 251.802 278.187 252.499 279.372C253.196 280.557 254.346 279.838 259.802 277.204Z" fill="#2D4F7E"/>
<path d="M482.048 318.531C482.037 318.362 481.993 318.197 481.918 318.045C481.844 317.893 481.74 317.758 481.613 317.646C481.485 317.534 481.337 317.449 481.177 317.394C481.017 317.34 480.847 317.317 480.679 317.328C473.053 317.641 465.501 316.979 457.925 316.87C441.914 316.649 420.276 320.87 403.489 311.515C400.054 309.596 396.75 307.349 393.435 305.41C385.055 300.507 376.199 295.611 368.268 290.311C361.998 286.14 354.613 293.652 357.767 300.39C362.095 309.268 373.726 314.097 373.322 316.096C354.052 314.04 341.863 313.44 320.151 302.749C316.778 301.087 312.046 298.753 308.795 296.913C308.535 296.75 308.221 296.695 307.921 296.759C307.621 296.823 307.357 297.002 307.186 297.257C307.016 297.512 306.951 297.824 307.006 298.126C307.062 298.428 307.233 298.697 307.483 298.875C314.089 304.131 321.497 308.291 329.423 311.195C343.305 316.738 358.169 319.398 373.111 319.012C373.5 326.497 381.295 334.984 392.108 335.574C392.278 335.609 392.453 335.609 392.622 335.574C392.792 335.54 392.953 335.472 393.096 335.374C393.239 335.276 393.361 335.15 393.454 335.004C393.547 334.858 393.61 334.695 393.639 334.524C393.667 334.353 393.661 334.178 393.621 334.01C393.58 333.841 393.506 333.683 393.403 333.543C393.3 333.404 393.17 333.287 393.021 333.199C392.872 333.111 392.706 333.054 392.534 333.032C390.927 332.525 389.367 331.876 387.875 331.092C380.492 327.506 374.837 321.783 377.972 314.228C378.582 312.707 379.362 311.259 380.298 309.913C380.517 309.69 380.639 309.388 380.636 309.075C380.633 308.762 380.506 308.462 380.282 308.243C380.058 308.024 379.757 307.902 379.443 307.905C379.13 307.908 378.831 308.035 378.612 308.259C376.887 309.498 375.463 311.109 374.443 312.971C375.098 312.971 364.027 305.638 361.11 298.865C359.622 295.497 363.211 291.586 366.098 293.54C374.438 299.172 382.753 303.748 391.423 308.837C401.222 314.581 406.894 320.337 426.411 321.391C437.482 321.988 447.476 320.684 460.201 320.535C467.545 320.453 474.037 320.535 480.85 319.903C481.018 319.891 481.183 319.847 481.335 319.772C481.486 319.697 481.622 319.593 481.733 319.465C481.844 319.338 481.929 319.19 481.983 319.03C482.037 318.869 482.059 318.7 482.048 318.531Z" fill="#191919"/>
<path d="M298.304 308.906C302.62 312.195 307.617 315.684 320.709 319.945C328.558 322.773 336.768 324.476 345.094 325.002C345.432 325.056 345.778 324.975 346.056 324.775C346.333 324.575 346.52 324.273 346.575 323.935C346.63 323.597 346.548 323.252 346.348 322.974C346.148 322.696 345.846 322.509 345.509 322.455C343.11 321.874 340.779 321.17 338.389 320.582C327.274 318.303 316.474 314.693 306.223 309.829C305.112 309.333 300.643 307.408 299.527 306.885C299.259 306.723 298.937 306.674 298.633 306.749C298.329 306.824 298.067 307.016 297.905 307.284C297.743 307.552 297.694 307.874 297.769 308.178C297.844 308.482 298.036 308.744 298.304 308.906Z" fill="#191919"/>
<path d="M291.774 319.533C298.972 324.324 306.767 328.151 314.96 330.914C322.937 334.286 331.328 336.581 339.911 337.739C340.242 337.806 340.585 337.742 340.869 337.559C341.152 337.376 341.352 337.089 341.427 336.761C341.502 336.432 341.444 336.087 341.268 335.8C341.091 335.512 340.809 335.306 340.482 335.224C338.002 334.463 335.633 333.58 333.223 332.816C308.066 324.85 316.914 326.956 292.861 317.44C292.722 317.363 292.57 317.314 292.413 317.297C292.255 317.28 292.096 317.294 291.945 317.34C291.793 317.385 291.652 317.46 291.53 317.561C291.408 317.662 291.308 317.787 291.234 317.927C291.161 318.067 291.117 318.221 291.105 318.379C291.092 318.537 291.111 318.695 291.161 318.846C291.211 318.996 291.291 319.135 291.395 319.254C291.5 319.372 291.627 319.469 291.77 319.538L291.774 319.533Z" fill="#191919"/>
<path d="M282.995 328.826C289.24 335.194 296.474 339.019 304.871 343.279C333.838 357.976 368.947 358.568 392.066 365.805C402.64 369.111 471.366 392.777 481.842 396.696C482.158 396.805 482.504 396.787 482.807 396.646C483.11 396.505 483.347 396.252 483.467 395.941C483.588 395.629 483.583 395.283 483.454 394.975C483.325 394.666 483.081 394.42 482.774 394.288C462.587 386.307 451.742 381.337 407.714 366.864C399.709 363.906 391.547 361.393 383.264 359.335C360.761 354.598 339.656 352.639 318.067 344.881C309.601 341.836 291.931 334.247 284.652 327.152C284.428 326.942 284.131 326.827 283.824 326.833C283.517 326.839 283.225 326.964 283.009 327.182C282.793 327.401 282.671 327.694 282.668 328.001C282.666 328.308 282.783 328.604 282.995 328.826Z" fill="#191919"/>
<path d="M239.449 350.975C232.009 360.131 237.79 368.831 243.754 377.977C247.474 383.681 250.716 388.926 247.779 394.781C246.573 397.107 244.933 399.18 242.948 400.89C242.689 401.103 242.524 401.41 242.488 401.743C242.451 402.077 242.546 402.412 242.752 402.676C242.959 402.941 243.26 403.115 243.593 403.161C243.925 403.207 244.262 403.122 244.533 402.923C256.005 395.176 254.376 386.967 247.095 375.799C242.011 368.01 236.773 360.989 241.413 352.281C241.506 352.153 241.572 352.007 241.607 351.852C241.642 351.697 241.646 351.536 241.617 351.38C241.589 351.224 241.53 351.075 241.442 350.942C241.355 350.81 241.242 350.696 241.11 350.608C240.978 350.52 240.829 350.459 240.673 350.43C240.517 350.401 240.356 350.404 240.201 350.438C240.046 350.472 239.9 350.537 239.77 350.63C239.641 350.722 239.532 350.839 239.449 350.975Z" fill="#2D4F7E"/>
<path d="M268.046 379.986C269.66 389.293 274.36 395.548 273.549 403.298C272.458 413.726 264.266 420.318 264.844 428.472C265.34 435.19 270.747 439.29 276.252 443.221C276.525 443.42 276.865 443.504 277.199 443.455C277.534 443.407 277.836 443.229 278.04 442.96C278.244 442.69 278.335 442.352 278.292 442.017C278.25 441.682 278.077 441.377 277.812 441.167C274.206 438.268 269.011 432.837 268.74 428.219C268.371 421.642 276.359 415.003 277.487 403.702C278.479 393.864 272.478 386.052 270.342 379.413C270.268 379.109 270.075 378.846 269.807 378.684C269.539 378.522 269.218 378.473 268.914 378.547C268.61 378.622 268.348 378.814 268.185 379.082C268.023 379.35 267.974 379.672 268.048 379.976L268.046 379.986Z" fill="#2D4F7E"/>
<path d="M198.896 412.3C198.92 412.482 198.902 412.668 198.843 412.842C198.785 413.017 198.688 413.176 198.559 413.307C196.044 415.913 193.678 418.664 191.295 421.412C184.006 429.844 184.527 430.305 183.155 430.456C176.437 431.247 170.507 431.778 163.648 432.076C163.219 432.092 162.796 431.97 162.443 431.726C162.09 431.482 161.825 431.131 161.689 430.724C159.135 423.602 156.982 416.342 155.241 408.979C155.178 408.689 155.182 408.389 155.251 408.101C155.32 407.812 155.453 407.543 155.64 407.313C160.89 400.835 166.113 394.511 171.76 388.423C172.7 387.411 171.909 387.723 195.025 388.998C195.421 389.016 195.802 389.159 196.112 389.407C196.422 389.656 196.645 389.996 196.748 390.379C197.464 393.229 197.952 396.132 198.207 399.059C198.526 402.449 198.97 411.948 198.896 412.3ZM174.027 391.776C169.067 397.199 163.98 403.325 159.338 409.076C160.89 415.498 162.769 421.837 164.967 428.068C170.423 427.82 176.722 427.324 182.007 426.781C186.461 421.589 191.251 416.696 196.347 412.131C195.819 405.598 194.86 399.107 193.475 392.701L174.027 391.776Z" fill="#191919"/>
<path d="M215.415 134.929C215.542 123.955 215.837 121.522 216.442 110.003C216.462 109.67 216.566 109.347 216.744 109.065C216.923 108.783 217.17 108.551 217.463 108.391C217.756 108.231 218.084 108.147 218.418 108.149C218.752 108.151 219.08 108.238 219.371 108.401C229.854 114.281 240.151 121.545 250.594 127.249C250.918 127.428 251.186 127.695 251.366 128.019C251.547 128.342 251.633 128.71 251.615 129.08C251.598 129.45 251.476 129.808 251.266 130.113C251.055 130.418 250.763 130.658 250.423 130.805C201.979 151.203 215.19 154.626 215.415 134.929ZM220.177 113.405C219.334 127.244 219.527 124.94 217.781 143.25C227.932 137.685 235.573 133.208 245.23 128.791C236.763 123.928 228.636 118.356 220.177 113.405Z" fill="#191919"/>
<path d="M275.54 110.878C293.148 113.339 310.28 113.802 327.085 114.834C337.416 115.466 341.895 116.074 352.284 117.294C352.457 117.305 352.626 117.351 352.781 117.429C352.935 117.507 353.073 117.616 353.185 117.748C353.297 117.88 353.381 118.034 353.432 118.199C353.483 118.365 353.501 118.539 353.483 118.711C353.466 118.884 353.414 119.051 353.33 119.203C353.247 119.354 353.133 119.488 352.997 119.595C352.861 119.702 352.704 119.781 352.537 119.826C352.37 119.871 352.195 119.882 352.024 119.858C338.981 118.728 300.348 118.544 273.244 114.564C272.77 114.493 272.338 114.253 272.027 113.888C271.716 113.524 271.547 113.059 271.553 112.58C272.076 66.1317 272.837 68.9663 273.269 53.6598C273.271 53.346 273.398 53.0461 273.621 52.8258C273.845 52.6056 274.147 52.4832 274.46 52.4855C274.774 52.4878 275.074 52.6146 275.294 52.8381C275.515 53.0616 275.637 53.3634 275.635 53.6771C275.669 56.8267 275.843 59.9689 275.9 63.1185C276.257 82.1128 275.697 92.3577 275.54 110.878Z" fill="#191919"/>
<path d="M345.938 61.0849C330.626 63.8947 330.693 64.2246 326.388 65.6034C326.235 65.6305 326.089 65.6873 325.958 65.7707C325.828 65.8542 325.715 65.9625 325.626 66.0897C325.537 66.2168 325.474 66.3602 325.44 66.5116C325.407 66.6631 325.404 66.8196 325.431 66.9724C325.458 67.1251 325.514 67.2711 325.598 67.4018C325.681 67.5326 325.79 67.6457 325.917 67.7346C326.044 67.8234 326.187 67.8864 326.339 67.9199C326.49 67.9534 326.647 67.9567 326.8 67.9297C331.648 67.8073 336.47 67.1679 341.184 66.0226C333.738 71.6854 326.676 77.837 320.046 84.4366C317.963 82.8505 315.98 81.1377 314.107 79.3079C307.515 72.9368 307.961 71.6199 306.225 71.5579C305.943 71.5478 305.662 71.5981 305.401 71.7055C305.139 71.8128 304.904 71.9747 304.71 72.1804C297.946 79.0531 291.618 86.342 285.763 94.0044C285.66 94.1205 285.581 94.2557 285.53 94.4024C285.48 94.549 285.458 94.7042 285.468 94.8591C285.477 95.014 285.517 95.1655 285.585 95.305C285.653 95.4445 285.747 95.5693 285.863 95.6722C285.98 95.7751 286.115 95.8541 286.261 95.9048C286.408 95.9554 286.563 95.9767 286.718 95.9674C286.873 95.9581 287.025 95.9183 287.164 95.8504C287.304 95.7826 287.428 95.6879 287.531 95.5718C299.259 84.0348 294.545 88.6699 306.049 76.5154C309.86 81.0747 314.229 85.1373 319.052 88.6079C319.422 88.8678 319.869 88.9938 320.32 88.9649C320.771 88.9361 321.198 88.7541 321.532 88.4492C325.279 84.9772 340.712 70.1542 342.518 68.4678C341.355 72.3719 340.514 76.3649 340.006 80.4066C339.933 80.7295 339.988 81.0678 340.158 81.3514C340.329 81.635 340.602 81.842 340.921 81.9295C341.24 82.0169 341.581 81.9781 341.872 81.821C342.164 81.664 342.383 81.4008 342.486 81.0861C343.15 79.3501 343.862 77.6562 344.457 75.8781C345.228 73.5642 346.595 68.2174 348.177 63.6814C348.29 63.3534 348.315 63.0014 348.25 62.6606C348.184 62.3199 348.03 62.0023 347.804 61.7395C347.577 61.4767 347.286 61.278 346.958 61.1631C346.631 61.0483 346.279 61.0213 345.938 61.0849Z" fill="#2D4F7E"/>
<path d="M357.021 169.865C360.604 156.166 366.147 156.21 375.923 153.497C386.017 150.687 388.514 146.667 392.522 137.057C393.75 133.132 395.971 129.591 398.97 126.778C399.246 126.584 399.436 126.289 399.497 125.957C399.559 125.626 399.488 125.283 399.3 125.003C399.111 124.722 398.821 124.527 398.49 124.459C398.16 124.391 397.815 124.455 397.532 124.637C388.981 129.63 388.966 139.765 383.356 145.388C374.976 153.777 356.887 146.57 354.697 169.444C354.663 169.599 354.66 169.76 354.689 169.916C354.718 170.073 354.779 170.222 354.867 170.354C354.955 170.487 355.069 170.6 355.202 170.688C355.335 170.775 355.484 170.835 355.641 170.864C355.798 170.892 355.958 170.888 356.114 170.853C356.269 170.818 356.416 170.752 356.545 170.659C356.674 170.565 356.783 170.447 356.865 170.311C356.947 170.174 356.999 170.023 357.021 169.865Z" fill="#2D4F7E"/>
<path d="M369.661 183.024C370.39 179.989 372.035 177.252 374.373 175.185C377.942 172.372 383.244 172.762 388.175 172.558C391.072 172.683 393.965 172.225 396.682 171.211C399.399 170.197 401.884 168.648 403.992 166.656C409.078 162.09 412.736 156.488 417.744 153.688C418.043 153.536 418.27 153.273 418.379 152.956C418.488 152.639 418.47 152.292 418.327 151.988C418.185 151.685 417.93 151.448 417.617 151.329C417.303 151.21 416.956 151.217 416.647 151.349C407.858 154.769 404.577 162.348 397.799 166.366C388.182 172.07 369.84 162.564 367.357 182.553C367.336 182.84 367.42 183.126 367.594 183.356C367.768 183.586 368.02 183.744 368.302 183.802C368.585 183.86 368.878 183.813 369.129 183.669C369.379 183.526 369.568 183.297 369.661 183.024Z" fill="#2D4F7E"/>
<path d="M96.0752 181.072C94.7806 193.038 95.8148 194.534 94.0292 195.407C92.2436 196.28 92.6925 194.764 79.9974 188.768C73.6337 185.759 67.0666 183.088 60.7278 180.313C60.2514 180.104 59.876 179.717 59.6826 179.234C59.4892 178.751 59.4931 178.212 59.6936 177.732C64.6065 165.862 69.2193 154.759 75.0349 143.475C75.2001 143.158 75.4493 142.891 75.7554 142.706C76.0616 142.52 76.4128 142.422 76.7709 142.422C77.129 142.422 77.4802 142.52 77.7863 142.706C78.0924 142.891 78.3417 143.158 78.5069 143.475C82.584 151.473 91.7253 163.244 97.6029 170.77C98.4138 171.795 97.216 170.624 96.0752 181.072ZM76.8602 148.552C72.2598 157.907 68.1157 167.765 64.113 177.459C73.5717 181.224 82.7769 185.597 91.6707 190.551C92.1778 184.298 93.3356 178.115 95.1254 172.102C95.3858 171.202 84.1514 160.927 76.8602 148.552Z" fill="#2D4F7E"/>
<path d="M137.548 80.1909C135.484 79.9212 133.393 79.9304 131.331 80.2181C132.782 83.6604 134.185 87.1274 135.502 90.6168C136.195 90.2292 136.866 89.8028 137.511 89.3396C138.432 88.7373 139.216 87.9476 139.811 87.022C140.406 86.0964 140.8 85.0558 140.966 83.9679C141.08 82.2914 140.008 80.8729 137.548 80.1909Z" fill="#2D4F7E"/>
<path d="M123.234 76.074C123.358 76.322 125.032 76.4485 125.391 76.4658C125.042 75.6606 124.694 74.8555 124.345 74.0503C124.164 74.2933 123.1 75.8037 123.234 76.074Z" fill="#2D4F7E"/>
<path d="M159.464 71.3645C156.811 65.0559 152.129 59.8126 146.16 56.4648C140.191 53.1169 133.276 51.8558 126.51 52.881C86.3462 57.8014 96.8961 126.289 141.238 111.444C145.215 110.219 148.886 108.165 152.01 105.417C155.134 102.669 157.64 99.2894 159.363 95.5019C161.085 91.7144 161.984 87.6047 162.002 83.4441C162.019 79.2834 161.154 75.1663 159.464 71.3645ZM144.909 84.2605C144.569 88.789 140.983 92.1518 136.844 94.2623C137.804 96.9358 138.245 98.8578 139.026 101.623C139.091 101.782 139.123 101.952 139.121 102.124C139.12 102.296 139.084 102.465 139.015 102.623C138.947 102.78 138.848 102.923 138.725 103.041C138.601 103.16 138.455 103.253 138.295 103.315C138.134 103.377 137.964 103.406 137.792 103.401C137.62 103.396 137.452 103.357 137.295 103.286C137.139 103.215 136.998 103.114 136.882 102.988C136.765 102.862 136.675 102.714 136.616 102.553C135.44 100.19 134.689 98.9198 133.357 95.7925C130.314 96.9333 128.194 97.4764 125.084 98.4089C124.924 98.4745 124.752 98.5073 124.579 98.5054C124.407 98.5034 124.236 98.4667 124.077 98.3974C123.919 98.3281 123.776 98.2276 123.657 98.102C123.538 97.9764 123.446 97.8282 123.386 97.6662C123.325 97.5042 123.298 97.3317 123.306 97.1589C123.313 96.9862 123.356 96.8168 123.43 96.6607C123.505 96.5047 123.61 96.3652 123.739 96.2505C123.868 96.1359 124.02 96.0484 124.184 95.9934C125.92 95.2072 131.128 92.8462 131.968 92.4395C130.597 89.0692 127.36 81.0563 127.095 80.4314C123.849 80.4537 119.903 80.1387 119.36 76.9346C118.958 74.648 121.024 71.8555 122.745 70.2981C121.609 67.5577 120.833 65.1149 120.265 63.5128C120.141 63.235 120.128 62.9199 120.23 62.633C120.332 62.3461 120.54 62.1095 120.812 61.9724C121.084 61.8354 121.398 61.8084 121.689 61.8972C121.981 61.9859 122.226 62.1835 122.376 62.4489C123.658 64.301 124.841 66.2209 125.917 68.2C127.543 67.3571 129.234 66.6464 130.974 66.0746C131.262 65.951 131.587 65.9467 131.878 66.0627C132.168 66.1788 132.401 66.4056 132.525 66.6934C132.649 66.9812 132.653 67.3063 132.537 67.5972C132.421 67.8881 132.194 68.121 131.906 68.2446C130.326 69.0913 128.806 70.0468 127.358 71.1041C128.176 72.8401 128.938 74.6034 129.694 76.3741C132.657 75.9886 135.658 75.9836 138.622 76.3592C143.488 77.7207 145.157 80.9323 144.909 84.2555V84.2605Z" fill="#2D4F7E"/>
<path d="M209.513 235.6C213.796 230.702 211.08 226.218 210.408 224.366C206.212 212.605 196.024 206.329 184.39 211.524C179.928 213.58 176.005 216.647 172.932 220.481C169.859 224.316 167.721 228.812 166.686 233.616C166.64 233.768 166.626 233.928 166.645 234.086C166.663 234.244 166.712 234.397 166.791 234.535C166.87 234.674 166.975 234.795 167.102 234.891C167.228 234.987 167.373 235.057 167.527 235.096C167.681 235.135 167.842 235.143 167.999 235.119C168.156 235.094 168.306 235.038 168.441 234.954C168.576 234.87 168.693 234.76 168.784 234.629C168.875 234.499 168.939 234.352 168.972 234.196C172.221 226.038 178.253 219.294 186 215.16C193.805 211.7 201.426 213.786 207.402 225.653C208.086 226.996 208.674 228.385 209.161 229.812C208.169 233.485 203.796 237.197 200.091 234.953C197.006 233.172 195.459 227.644 189.427 227.761C183.642 227.875 179.507 234.804 176.601 239.791C170.458 250.44 168.129 267.924 180.172 270.811C184.008 271.507 187.963 271.125 191.595 269.707C191.743 269.663 191.882 269.589 192.002 269.491C192.122 269.393 192.222 269.272 192.295 269.136C192.368 268.999 192.414 268.85 192.43 268.695C192.446 268.541 192.431 268.385 192.386 268.237C192.341 268.088 192.268 267.95 192.17 267.83C192.072 267.71 191.951 267.61 191.815 267.537C191.678 267.463 191.528 267.417 191.374 267.402C191.22 267.386 191.064 267.401 190.915 267.446C187.691 268.246 184.319 268.232 181.102 267.403C172.052 264.609 175.646 249.339 180.05 241.793C181.935 238.549 185.72 231.791 189.509 231.704C193.299 231.617 194.209 236.059 198.189 238.296C199.457 238.994 200.885 239.35 202.333 239.329C203.78 239.308 205.198 238.911 206.445 238.177C204.729 240.326 203.818 243.006 203.868 245.756C203.868 249.132 205.21 252.37 207.597 254.757C209.984 257.144 213.222 258.485 216.598 258.485C219.974 258.485 223.212 257.144 225.6 254.757C227.987 252.37 229.328 249.132 229.328 245.756C229.251 234.891 216.985 231.29 209.513 235.6ZM222.808 251.871C221.144 253.477 218.921 254.375 216.608 254.375C214.295 254.375 212.072 253.477 210.408 251.871C203.189 244.858 211.747 235.702 217.052 236.334C224.264 237.202 228.477 246.366 222.808 251.871Z" fill="#191919"/>
<path d="M217.04 236.344C211.735 235.712 203.176 244.868 210.396 251.881C212.06 253.487 214.283 254.385 216.596 254.385C218.909 254.385 221.131 253.487 222.796 251.881C228.477 246.368 224.264 237.202 217.04 236.344Z" fill="#2D4F7E"/>
</svg>
