<svg width="496" height="496" viewBox="0 0 496 496" fill="none" xmlns="http://www.w3.org/2000/svg">
<path d="M293.24 277.264C279.151 282.608 264.874 287.263 250.696 291.99C248.899 289.856 246.954 287.851 244.875 285.991C243.603 285.081 241.423 286.17 240.148 286.715C239.241 287.08 236.877 287.625 236.694 288.898C236.446 291.646 242.894 288.717 243.603 288.533C244.922 288.347 250.949 296.623 271.421 319.441C271.649 319.689 271.96 319.845 272.295 319.88C272.63 319.914 272.966 319.824 273.239 319.627C279.419 317.08 285.809 315.072 292.335 313.626C294.153 313.264 293.426 310.536 291.608 310.898C285.193 312.226 278.921 314.175 272.882 316.716C271.426 314.898 269.789 313.264 268.336 311.443C271.791 310.352 288.154 304.718 289.79 303.988C289.963 303.865 290.103 303.702 290.198 303.512C290.293 303.322 290.339 303.112 290.334 302.9C290.667 294.661 292.198 286.515 294.879 278.717C294.907 278.503 294.881 278.286 294.805 278.084C294.729 277.882 294.605 277.701 294.443 277.558C294.282 277.415 294.088 277.313 293.878 277.262C293.669 277.211 293.45 277.211 293.24 277.264Z" fill="#191919"/>
<path d="M279.422 323.439C277.767 319.967 273.241 322.157 273.241 325.257C273.235 325.72 273.327 326.18 273.512 326.604C273.698 327.029 273.972 327.409 274.316 327.719C274.66 328.028 275.067 328.261 275.509 328.401C275.951 328.54 276.417 328.584 276.877 328.528C277.446 328.479 277.993 328.285 278.465 327.964C278.938 327.644 279.32 327.207 279.575 326.696C279.83 326.186 279.95 325.618 279.924 325.048C279.897 324.477 279.724 323.924 279.422 323.439Z" fill="#191919"/>
<path d="M293.967 319.258C292.31 315.786 287.787 317.978 287.787 321.076C287.78 321.539 287.873 321.998 288.058 322.423C288.244 322.847 288.518 323.227 288.862 323.537C289.206 323.846 289.613 324.079 290.055 324.219C290.496 324.358 290.963 324.402 291.422 324.347C291.991 324.298 292.538 324.104 293.01 323.783C293.483 323.463 293.865 323.026 294.12 322.515C294.376 322.005 294.496 321.437 294.469 320.867C294.442 320.296 294.269 319.742 293.967 319.258Z" fill="#191919"/>
<path d="M205.059 261.804C190.315 261.804 172.392 268.921 159.786 277.428C157.969 278.7 156.151 280.156 154.33 281.609C152.493 282.899 150.894 284.499 149.603 286.336C149.058 287.063 150.149 287.789 150.876 287.608C152.565 286.621 154.149 285.463 155.603 284.153C160.23 280.584 165.157 277.42 170.329 274.7C182.481 268.299 193.11 266.02 205.421 263.971C206.336 263.438 206.15 261.804 205.059 261.804Z" fill="#191919"/>
<path d="M211.241 278.167C205.599 277.158 194.873 279.407 189.968 280.711C181.078 283.213 172.705 287.276 165.24 292.712C163.595 294.024 162.074 295.484 160.697 297.074C160.151 297.62 160.878 298.892 161.604 298.349C163.06 297.258 164.694 296.531 165.969 295.621C167.422 294.713 168.697 293.803 170.15 292.893C189.822 280.597 204.87 281.341 211.07 280.166C212.149 279.992 212.154 278.331 211.241 278.167Z" fill="#191919"/>
<path d="M207.968 298.711C212.766 297.171 217.695 296.076 222.694 295.44C223.785 295.256 223.785 293.622 222.694 293.803C214.041 294.011 205.515 295.926 197.604 299.438C168.119 312.175 160.362 335.713 135.604 346.166C131.398 348.035 126.914 349.202 122.331 349.62C117.8 349.767 113.271 349.277 108.877 348.165C108.665 348.096 108.435 348.108 108.232 348.199C108.029 348.289 107.866 348.452 107.776 348.656C107.686 348.859 107.674 349.089 107.743 349.3C107.812 349.512 107.957 349.691 108.15 349.801C114.879 353.983 124.332 353.073 131.604 350.712C149.246 345.223 160.868 330.961 172.876 319.62C182.544 309.702 194.644 302.493 207.968 298.711Z" fill="#191919"/>
<path d="M471.235 225.62C470.204 221.998 468.867 218.47 467.237 215.075C466.691 214.168 466.691 212.895 465.419 212.712C464.328 212.531 463.237 213.439 463.782 214.53C467.056 222.349 469.6 230.712 472.145 238.893C475.44 248.736 477.934 258.83 479.602 269.075C480.172 272.255 480.294 275.499 479.964 278.712C477.896 289.396 462.627 291.588 448.508 296.166C440.324 298.711 410.693 307.984 404.148 309.985C379.274 231.632 377.171 223.321 374.329 209.986C373.783 207.258 370.512 203.258 369.056 200.895C368.511 199.804 360.694 187.441 361.058 187.076C361.058 187.076 360.694 193.075 360.694 194.166C360.329 205.441 363.965 216.531 366.69 227.441C368.511 234.712 390.875 314.528 391.602 314.347C356.512 325.259 236.513 361.075 229.422 362.707C220.876 364.709 208.513 365.254 202.331 357.799C193.423 347.071 189.603 334.162 183.604 321.981C183.24 321.254 182.151 321.8 182.332 322.526C186.878 335.799 191.605 355.436 204.332 363.253C217.489 371.806 235.828 364.166 249.24 360.163C270.32 354.164 365.783 325.619 392.336 317.259C392.701 318.35 392.52 319.077 393.97 319.806C395.974 320.894 406.698 317.623 405.428 313.259C407.29 312.445 463.708 294.974 463.971 294.907C469.246 293.27 475.064 291.452 479.064 287.271C485.671 280.661 483.573 271.748 481.973 262.543C479.493 252.96 477.172 242.963 471.235 225.62Z" fill="#2D4F7E"/>
<path d="M125.059 191.258C96.3629 198.698 87.172 181.137 69.2416 178.895C50.8896 176.762 27.6495 190.246 19.6069 224.713C17.6389 233.702 16.3022 242.817 15.6067 251.993C8.48906 318.425 14.2079 394.627 24.3338 434.355C26.4869 443.519 29.7856 452.377 34.1521 460.717C37.9688 467.991 43.9704 473.809 52.333 475.081C60.2928 476.159 68.3629 474.142 74.8787 469.444C87.7127 460.328 94.9369 443.531 101.97 428.353C121.969 386.892 123.96 375.837 125.059 372.536C127.851 367.886 127.254 362.616 125.605 357.445C125.52 357.167 125.338 356.928 125.092 356.773C124.846 356.618 124.552 356.557 124.265 356.602C123.977 356.646 123.716 356.793 123.527 357.014C123.339 357.236 123.238 357.519 123.241 357.809C123.787 363.082 125.424 370.705 119.424 373.81C108.741 379.366 97.3227 344.889 94.5153 333.265C94.3318 332.9 98.6966 327.447 99.0611 326.718C110.774 307.431 112.761 266.759 195.24 249.094C196.151 248.913 195.786 247.457 194.878 247.638C147.741 253.984 118.688 277.353 105.968 304.909C102.612 313.449 98.6007 321.717 93.9697 329.639C93.5568 326.8 93.618 323.912 94.1507 321.093C94.5646 319.536 95.3402 318.099 96.4146 316.898C97.489 315.697 98.8317 314.767 100.333 314.184C101.06 314 101.06 312.547 100.15 312.547C98.2938 312.778 96.5353 313.509 95.0624 314.661C93.5895 315.814 92.4574 317.345 91.7873 319.092C86.5148 324.183 81.6069 330.004 76.8775 335.46C60.7898 354.022 42.3907 379.304 38.3334 403.64C37.5124 408.198 37.3288 412.849 37.7878 417.458C37.7878 418.366 39.2435 418.366 39.06 417.458C38.1003 390.86 60.1623 359.344 77.4231 339.09C81.7879 333.996 85.9692 328.907 90.6961 324.181C90.4233 330.475 96.2364 352.926 104.696 365.817C107.788 370.544 113.061 378.713 119.786 376.543C120.332 376.362 120.878 375.998 121.423 375.817C112.518 396.597 121.066 381.025 94.6963 436.544C87.2563 451.791 79.422 467.316 62.8779 471.453C55.061 473.271 46.8795 471.815 41.4235 465.816C31.5159 454.586 25.8342 429.767 23.2426 415.09C13.6871 358.281 13.0746 287.253 20.1525 237.274C22.5159 220.546 27.4239 203.092 40.5158 191.642C46.2604 186.403 53.3932 182.932 61.0601 181.643C83.7397 178.401 95.7975 204.111 125.605 192.188C125.969 192.168 125.786 191.072 125.059 191.258Z" fill="#191919"/>
<path d="M196.877 102.895C201.059 99.9862 206.515 103.079 210.517 105.078C213.61 106.531 220.7 110.35 223.245 106.169C223.428 105.804 223.245 105.078 222.699 105.078C221.068 104.926 219.429 104.865 217.791 104.897C211.095 103.838 202.529 95.2891 195.61 101.442C194.695 101.988 195.967 103.622 196.877 102.895Z" fill="#191919"/>
<path d="M175.787 127.259C175.941 123.957 176.367 120.673 177.06 117.44C179.423 107.806 186.878 99.6217 193.428 92.3503C193.523 92.2697 193.6 92.1701 193.655 92.058C193.71 91.9458 193.741 91.8235 193.746 91.6987C193.752 91.574 193.731 91.4495 193.685 91.3332C193.64 91.2169 193.571 91.1112 193.483 91.0229C193.394 90.9347 193.289 90.8656 193.172 90.8203C193.056 90.7749 192.932 90.7541 192.807 90.7593C192.682 90.7645 192.56 90.7955 192.448 90.8504C192.336 90.9052 192.236 90.9828 192.155 91.0781C187.557 95.3014 183.413 99.9934 179.79 105.078C176.089 110.26 173.888 116.362 173.429 122.713C173.484 124.424 173.919 126.101 174.701 127.623C174.877 128.169 175.787 127.804 175.787 127.259Z" fill="#191919"/>
<path d="M171.242 144.532C175.641 146.672 180.603 147.371 185.422 146.531C189.787 145.623 195.605 142.531 196.877 137.987C196.921 137.846 196.918 137.695 196.869 137.556C196.819 137.417 196.726 137.297 196.604 137.215C196.481 137.133 196.335 137.093 196.188 137.101C196.04 137.109 195.9 137.164 195.786 137.258C191.788 139.076 187.401 147.562 171.978 142.714C170.872 142.168 170.14 144.004 171.242 144.532Z" fill="#191919"/>
<path d="M448.691 203.804C443.598 204.999 438.657 206.767 433.963 209.076C432.874 209.622 433.601 211.44 434.873 211.075C442.692 208.347 450.874 205.076 459.425 205.619C469.424 206.165 473.246 215.073 475.426 223.438C475.788 224.891 478.335 224.71 478.154 223.074C477.67 216.747 474.812 210.837 470.153 206.529C464.147 201.986 455.955 202.299 448.691 203.804Z" fill="#191919"/>
<path d="M461.964 191.987C460.995 191.987 443.759 185.973 427.602 197.443C427.331 197.62 427.138 197.895 427.064 198.21C426.989 198.526 427.039 198.858 427.202 199.138C427.365 199.418 427.63 199.624 427.941 199.715C428.252 199.806 428.586 199.773 428.874 199.625C437.05 194.334 446.896 192.262 456.511 193.807C458.165 194.083 459.803 194.448 461.419 194.898C462.791 195.536 464.273 195.906 465.784 195.987C465.961 195.929 466.123 195.832 466.259 195.705C466.395 195.577 466.502 195.421 466.571 195.248C466.64 195.074 466.671 194.888 466.66 194.702C466.65 194.515 466.599 194.333 466.51 194.169C465.284 192.95 463.682 192.181 461.964 191.987Z" fill="#191919"/>
<path d="M453.783 179.44C453.127 179.298 452.455 179.237 451.784 179.259C446.252 178.521 440.628 178.915 435.252 180.415C429.877 181.915 424.862 184.491 420.511 187.987C419.601 188.713 420.873 190.531 421.784 189.804C426.395 186.52 431.622 184.199 437.151 182.981C442.681 181.763 448.399 181.672 453.964 182.714C455.055 182.895 456.511 183.622 457.419 183.076C457.607 183.035 457.783 182.948 457.93 182.823C458.077 182.698 458.192 182.539 458.264 182.36C458.335 182.18 458.362 181.986 458.341 181.794C458.321 181.602 458.253 181.418 458.145 181.258C457.419 179.986 455.601 179.621 453.783 179.44Z" fill="#191919"/>
<path d="M451.055 167.078C438.794 164.32 426.084 166.475 416.692 174.895C415.601 175.986 417.238 177.439 418.329 176.531C422.192 173.562 426.615 171.404 431.332 170.185C436.05 168.967 440.965 168.714 445.782 169.441C451.067 170.026 452.868 171.941 454.874 171.44C455.041 171.396 455.195 171.316 455.326 171.204C455.457 171.093 455.562 170.954 455.631 170.796C455.701 170.639 455.735 170.468 455.729 170.296C455.724 170.124 455.68 169.956 455.601 169.803C454.46 168.38 452.847 167.413 451.055 167.078Z" fill="#191919"/>
<path d="M385.238 408.347C392.971 407.036 400.306 403.99 406.693 399.439C419.966 390.166 429.419 376.347 437.239 362.529C451.501 337.436 460.424 310.389 464.147 300.712C464.199 300.482 464.167 300.242 464.057 300.033C463.947 299.824 463.767 299.662 463.548 299.574C463.33 299.486 463.087 299.479 462.863 299.554C462.64 299.629 462.451 299.781 462.329 299.983C447.377 333.624 428.547 392.983 390.33 404.166C370.254 410.068 352.267 396.929 337.602 381.985C328.207 372.264 319.913 361.535 312.874 349.993C312.102 348.907 311.433 347.751 310.878 346.54C309.968 344.904 307.24 346.357 308.328 347.994C323.67 374.517 355.491 412.595 385.238 408.347Z" fill="#191919"/>
<path d="M372.875 339.621C375.87 336.193 379.155 333.03 382.694 330.167C385.784 327.439 390.33 325.257 392.512 321.802C392.874 321.438 392.329 320.895 391.966 321.076C387.783 321.621 383.966 325.622 380.873 328.166C377.448 331.229 374.286 334.574 371.42 338.165C370.512 339.264 371.963 340.71 372.875 339.621Z" fill="#191919"/>
<path d="M268.336 122.351C267.426 122.713 268.517 108.532 268.698 107.622C270.154 98.5329 274.335 89.9868 274.516 80.7141C274.839 66.6029 266.218 54.2798 251.427 53.2605C247.973 41.4433 240.88 30.5338 229.603 25.0778C204.307 12.6554 160.716 27.0866 146.332 60.3508C139.969 74.896 138.88 91.9882 123.968 100.896C113.968 106.895 103.785 107.987 92.6949 109.804C92.3329 109.804 92.3329 110.531 92.6949 110.531C96.6155 111.563 100.72 111.688 104.696 110.896C112.181 109.753 119.355 107.093 125.776 103.079C117.402 111.183 106.331 115.91 94.6864 116.352C94.4738 116.365 94.267 116.427 94.0813 116.531C93.8956 116.636 93.7357 116.78 93.6135 116.955C93.4914 117.13 93.41 117.329 93.3755 117.54C93.341 117.75 93.3542 117.965 93.4141 118.17C95.2963 128.439 99.9563 137.997 106.888 145.804C119.615 160.533 139.068 165.622 157.068 157.624C157.258 157.524 157.422 157.382 157.548 157.208C157.673 157.035 157.757 156.834 157.792 156.623C157.828 156.412 157.814 156.195 157.751 155.99C157.689 155.785 157.58 155.597 157.433 155.441C151.25 148.713 150.524 138.533 150.343 129.806C150.687 115.216 154.224 100.88 160.704 87.8044C165.151 91.5095 171.601 89.5404 173.615 95.0782C173.977 95.9859 174.523 97.4417 175.795 96.715C177.067 95.9884 176.159 93.4414 175.614 92.3502C174.846 90.7636 173.565 89.4826 171.978 88.7146C168.888 87.0778 164.523 87.8044 161.979 85.0789C162.886 83.261 163.978 81.4407 164.888 79.6229C185.224 82.8766 199.729 77.4851 216.34 65.4422C220.16 62.5332 223.976 59.6242 227.614 56.5341C227.25 56.7151 226.34 63.0788 223.976 66.7145C219.076 74.7138 211.931 81.0958 203.432 85.0665C202.16 85.6121 202.886 87.611 204.159 87.611C216.458 87.5421 228.49 84.0142 238.879 77.4306C239.243 77.247 239.605 76.885 239.97 76.7014C234.878 83.4297 229.058 89.2477 220.514 91.2466C220.243 91.3038 220 91.4525 219.826 91.6676C219.651 91.8828 219.556 92.1514 219.556 92.4284C219.556 92.7054 219.651 92.9739 219.826 93.1891C220 93.4042 220.243 93.5529 220.514 93.6101C231.605 95.0658 239.424 87.4299 241.607 85.7931C237.705 105.068 217.248 118.105 217.248 139.259C222.885 136.219 263.941 123.683 268.336 122.351Z" fill="#191919"/>
<path d="M275.421 431.438C257.633 434.91 239.667 437.399 221.605 438.893C165.609 443.523 125.074 436.599 108.517 435.255C108.393 435.269 108.277 435.324 108.187 435.41C108.096 435.496 108.036 435.609 108.016 435.732C107.995 435.856 108.016 435.982 108.073 436.093C108.131 436.204 108.223 436.292 108.336 436.346C135.413 443.012 194.975 447.204 253.416 438.347C268.185 435.952 284.543 433.35 293.416 429.801C293.959 429.62 294.145 428.527 293.6 428.346C293.697 428.355 293.796 428.342 293.888 428.309C293.98 428.276 294.064 428.223 294.133 428.153C294.202 428.084 294.255 428 294.288 427.907C294.321 427.815 294.334 427.717 294.324 427.619C295.475 421.305 295.437 415.881 297.598 403.439C299.937 390.872 302.911 378.431 306.508 366.165C306.687 365.438 305.598 365.257 305.417 365.8C303.961 369.619 302.327 373.438 301.052 377.439C297.161 389.653 291.762 415.383 292.69 427.438C292.724 427.638 292.809 427.827 292.936 427.986C293.063 428.144 293.228 428.268 293.416 428.346C287.353 428.955 281.34 429.989 275.421 431.438Z" fill="#191919"/>
<path d="M100.514 293.632C99.2744 297.117 97.9773 299.277 99.0611 300.903C99.2421 301.087 99.4232 301.266 99.6067 301.266C100.15 301.449 100.514 300.903 100.879 300.541C104.944 294.912 106.052 284.987 108.877 276.54C109.241 275.811 116.877 266.722 119.789 262.54C120.496 261.484 120.037 260.284 119.062 261.268C115.786 264.361 112.69 267.639 109.79 271.086C111.786 260.912 112.337 250.507 111.426 240.178C111.245 238.722 110.335 239.087 110.154 240.359C109.705 258.507 106.453 276.477 100.514 293.632Z" fill="#191919"/>
<path d="M347.24 168.531C346.379 164.827 344.968 161.273 343.056 157.986C341.422 155.442 335.236 153.624 332.511 152.714C327.17 150.742 321.618 149.4 315.967 148.713C312.877 148.351 308.874 147.987 306.33 150.531C303.239 153.44 304.15 159.258 304.512 163.078C305.057 172.169 307.785 186.35 315.238 192.341C327.422 201.979 342.146 181.797 347.056 172.524C347.488 171.236 347.552 169.853 347.24 168.531Z" fill="#2D4F7E"/>
<path d="M358.149 153.986C358.672 163.261 367.238 168.169 375.058 170.895C380.876 172.712 396.512 177.987 400.148 170.532C402.33 165.987 401.058 159.258 400.329 154.35C399.238 146.715 397.055 135.44 390.692 130.168C383.252 124.169 373.786 130.714 368.33 136.351C364.148 140.713 357.77 147.26 358.149 153.986Z" fill="#2D4F7E"/>
<path d="M361.237 167.077C358.182 163.464 356.059 159.156 355.057 154.531C355.057 154.167 354.873 153.805 354.873 153.44C354.33 153.44 345.422 156.168 345.784 156.714C345.784 156.892 345.702 155.226 350.146 170.354C351.237 169.987 361.237 167.077 361.237 167.077Z" fill="#2D4F7E"/>
<path d="M353.965 150.896C349.058 137.804 339.785 107.992 339.239 106.169C367.412 97.7941 399.575 87.8939 409.423 85.8057C428.626 82.1477 429.052 102.151 438.876 130.533C426.513 133.261 414.324 137.442 402.149 141.445C402.33 141.807 402.33 142.171 402.514 142.533C403.482 145.427 404.152 148.413 404.513 151.444C424.817 145.197 435.428 143.238 442.149 141.261C442.37 142.141 446.388 154.943 447.786 160.533C447.921 160.925 448.202 161.25 448.571 161.441C448.939 161.631 449.367 161.672 449.765 161.555C450.163 161.438 450.5 161.173 450.707 160.813C450.915 160.454 450.975 160.028 450.876 159.625C449.059 153.262 447.241 146.898 445.42 140.353C446.421 140.159 447.397 139.854 448.329 139.443C449.418 138.717 447.6 129.808 447.419 129.625C447.419 129.263 447.238 128.717 446.693 128.898C445.161 129.113 443.643 129.417 442.147 129.808L433.963 103.625C431.78 96.7177 429.052 88.7172 422.689 84.5285C415.249 79.6181 405.964 83.2538 398.137 85.4362C388.318 88.1642 348.683 99.8004 338.503 102.89C338.319 101.983 338.138 98.7092 335.956 99.4358C333.411 100.346 321.41 103.617 320.684 104.708C320.319 105.254 321.229 108.163 321.592 107.982C311.957 110.891 149.777 163.073 146.139 164.526C140.683 166.527 135.227 168.891 132.139 174.163C127.05 182.526 129.411 192.515 132.504 201.071C135.104 208.106 137.35 215.266 139.232 222.526C139.049 222.526 136.504 223.071 137.595 224.708C139.232 227.436 139.778 230.526 141.231 233.254C142.141 234.888 143.959 233.435 144.505 233.254C145.05 234.707 151.23 248.707 153.958 254.334C154.323 255.242 155.776 254.515 155.231 253.607C152.686 247.789 147.23 233.606 146.868 232.527C203.122 212.551 247.35 199.511 304.502 183.438C303.956 182.166 301.593 172.526 301.593 172.164C294.698 173.315 136.621 223.411 142.873 221.437C142.327 220.165 137.236 205.801 135.053 199.982C133.186 195.485 132.198 190.671 132.144 185.802C132.08 181.52 133.496 177.346 136.152 173.987C139.458 170.131 143.976 168.531 153.79 165.076C163.789 161.622 321.061 111.623 323.06 110.896C334.329 132.378 339.324 143.007 344.695 154.35C345.987 153.919 352.066 150.896 353.965 150.896Z" fill="#2D4F7E"/>
<path d="M358.33 171.259C355.939 172.199 353.431 172.811 350.875 173.077C344.147 186.895 339.601 201.986 333.783 216.167C332.511 219.44 342.875 215.259 345.419 211.259C345.988 216.541 347.401 221.697 349.603 226.531C350.149 227.803 351.421 230.166 352.148 227.622C354.791 215.391 358.541 168.226 358.33 171.259Z" fill="#2D4F7E"/>
<path d="M361.056 170.168C360.005 173.142 359.755 176.339 360.329 179.44C368.33 192.713 377.602 205.622 384.881 219.44C385.427 220.532 387.609 220.167 387.428 218.714C387.245 217.439 386.699 203.258 385.972 203.077C389.977 204.287 394.199 204.597 398.338 203.985C398.587 203.906 398.814 203.766 398.996 203.578C399.179 203.39 399.312 203.16 399.384 202.908C399.456 202.656 399.465 202.39 399.409 202.134C399.353 201.878 399.235 201.64 399.064 201.441C388.336 192.349 378.517 181.985 367.61 173.258C366.519 172.35 363.065 168.895 361.063 170.168H361.056Z" fill="#2D4F7E"/>
</svg>
