<svg width="496" height="496" viewBox="0 0 496 496" fill="none" xmlns="http://www.w3.org/2000/svg">
<path d="M429.432 315.969C430.198 282.075 429.102 279.932 428.713 262.724C424.787 88.7716 425.571 91.4054 425.124 90.4258C424.474 88.9948 422.51 89.5726 421.28 89.657C410.066 90.401 394.814 89.6446 385.005 90.7581C384.883 90.7695 384.766 90.816 384.669 90.8919C384.572 90.9678 384.499 91.07 384.458 91.1863C384.418 91.3026 384.412 91.4281 384.44 91.5479C384.469 91.6676 384.532 91.7765 384.621 91.8617C382.428 171.966 384.789 256.871 386.183 316.994C386.255 320.101 386.664 319.774 395.002 319.865C404.575 319.972 412.188 319.426 422.175 319.456C424.205 319.648 426.247 319.665 428.279 319.506C429.784 319.047 429.405 317.147 429.432 315.969Z" fill="#2D4F7E"/>
<path d="M212.784 246.931C224.988 240.701 238.779 233.832 253.545 226.858C253.342 222.501 252.305 184.482 252.305 183.022C252.305 182.099 252.553 180.847 251.715 180.177C251.073 179.666 250.177 179.892 249.433 179.929C236.513 180.41 222.838 179.904 213.801 180.571C213.682 180.584 213.57 180.63 213.476 180.704C213.382 180.778 213.311 180.877 213.271 180.989C213.231 181.101 213.223 181.223 213.249 181.339C213.275 181.456 213.333 181.563 213.416 181.648C212.536 203.377 212.449 225.167 212.784 246.931Z" fill="#2D4F7E"/>
<path d="M163.281 270.184C175.482 263.954 189.274 257.084 204.042 250.11C203.836 245.753 202.802 207.735 202.802 206.274C202.802 205.351 203.05 204.097 202.214 203.427C201.569 202.931 200.674 203.144 199.933 203.179C187.009 203.66 173.337 203.154 164.298 203.819C164.178 203.831 164.065 203.877 163.971 203.951C163.877 204.025 163.806 204.124 163.766 204.237C163.725 204.35 163.718 204.472 163.744 204.589C163.77 204.706 163.829 204.813 163.913 204.898C163.023 226.627 162.936 248.444 163.281 270.184Z" fill="#2D4F7E"/>
<path d="M313.737 257.263C300.663 263.314 285.178 270.516 268.772 278.234C268.949 319.878 268.465 316.041 268.696 317.943C268.904 319.679 270.928 319.357 272.309 319.404C285.975 320.268 299.681 320.32 313.353 319.558C313.353 319.808 314.34 285.054 313.737 257.263Z" fill="#2D4F7E"/>
<path d="M266.952 221.526C281.358 215.142 296.464 208.761 311.711 202.787C311.071 186.303 309.147 135.594 308.867 126.726C308.82 125.238 308.532 124.427 306.788 124.469C299.524 124.65 270.546 126.544 268.413 126.931C267.309 127.13 267.051 127.827 267.029 128.724C266.967 131.16 266.154 200.684 266.464 210.041C266.6 213.888 266.771 217.707 266.952 221.526Z" fill="#2D4F7E"/>
<path d="M370.777 277.157C370.17 236.089 367.553 177.362 367.521 159.258C367.506 151.803 368.962 153.517 356.83 153.72C347.902 153.869 337.171 153.596 329.017 154.283C328.898 154.296 328.785 154.342 328.692 154.416C328.598 154.49 328.527 154.589 328.487 154.701C328.447 154.813 328.439 154.935 328.465 155.051C328.491 155.168 328.549 155.275 328.632 155.36C328.136 168.846 327.913 182.354 327.836 195.865C331.886 194.66 340.774 194.102 349.96 207.326C350.775 208.498 351.39 209.796 351.781 211.17C354.036 218.879 354.44 227.013 352.959 234.908C352.665 236.199 352.078 237.406 351.242 238.433C350.406 239.46 349.345 240.28 348.14 240.83C344.236 242.613 337.322 245.805 328.221 250.006C328.426 261.618 330.006 313.787 330.118 317.378C330.148 318.325 329.929 319.61 330.862 320.223C332.404 321.215 354.732 320.223 368.674 320.428C369.279 320.514 369.893 320.504 370.495 320.401C371.521 320.071 371.576 319.146 371.596 318.224C372.206 289.892 370.966 290.046 370.777 277.157Z" fill="#2D4F7E"/>
<path d="M440.071 13.3374C440.455 14.0959 440.666 14.9299 440.69 15.7797C440.714 16.6294 440.55 17.474 440.21 18.2529C439.869 19.0318 439.361 19.7258 438.721 20.2853C438.081 20.8448 437.325 21.2559 436.507 21.4892C435.845 21.5587 435.218 21.8277 434.712 22.2605C434.601 22.3783 434.539 22.5339 434.539 22.6957C434.539 22.8575 434.601 23.0132 434.712 23.131C436.656 24.676 439.835 22.258 441.043 20.651C441.894 19.5283 442.39 18.1772 442.468 16.7708C442.546 15.3643 442.202 13.9667 441.48 12.7571C441.031 12.023 439.771 12.5141 440.071 13.3374Z" fill="#191919"/>
<path d="M443.632 14.4137C443.2 15.3194 443.067 16.3388 443.252 17.3251C443.436 18.3114 443.929 19.2137 444.659 19.902C445.884 21.0329 449.034 22.1166 450.17 20.398C450.219 20.3106 450.249 20.2132 450.256 20.113C450.263 20.0127 450.248 19.9121 450.211 19.8186C450.174 19.725 450.117 19.641 450.043 19.5726C449.969 19.5042 449.881 19.4532 449.785 19.4233C449.206 19.3642 448.621 19.3901 448.049 19.5002C447.505 19.4939 446.969 19.3581 446.487 19.1041C446.006 18.8502 445.591 18.4852 445.278 18.0395C444.965 17.5937 444.763 17.0799 444.687 16.5405C444.612 16.0011 444.666 15.4514 444.845 14.937C445.031 14.2054 443.97 13.697 443.632 14.4137Z" fill="#191919"/>
<path d="M437.789 25.9755C438.372 25.7678 438.997 25.7086 439.608 25.8032C440.22 25.8979 440.797 26.1435 441.29 26.5177C441.782 26.8919 442.174 27.383 442.428 27.9465C442.683 28.5101 442.794 29.1282 442.749 29.7451C442.6 30.3502 442.644 30.9869 442.876 31.5655C442.928 31.6504 443.006 31.7162 443.099 31.7533C443.191 31.7904 443.293 31.7967 443.389 31.7713C445.641 31.1414 444.409 27.3941 443.414 26.2062C442.698 25.3399 441.704 24.7489 440.601 24.534C439.498 24.3192 438.354 24.4938 437.365 25.0282C436.842 25.3159 437.199 26.1045 437.789 25.9755Z" fill="#191919"/>
<path d="M449.274 23.617C445.361 23.2078 443.605 28.6142 446.172 30.0005C446.243 30.0376 446.323 30.0537 446.403 30.0471C446.484 30.0405 446.56 30.0114 446.624 29.9632C446.689 29.915 446.738 29.8497 446.767 29.7747C446.795 29.6997 446.802 29.6181 446.787 29.5393C446.507 27.7189 446.938 24.9587 449.299 24.7727C449.452 24.7694 449.598 24.7054 449.704 24.5947C449.81 24.484 449.868 24.3357 449.865 24.1825C449.861 24.0292 449.797 23.8835 449.687 23.7775C449.576 23.6715 449.428 23.6137 449.274 23.617Z" fill="#191919"/>
<path d="M360.701 31.4365C360.618 32.2836 360.349 33.102 359.914 33.8335C359.479 34.565 358.888 35.1916 358.183 35.6689C357.478 36.1462 356.677 36.4623 355.836 36.595C354.995 36.7276 354.136 36.6734 353.318 36.4362C352.717 36.1302 352.035 36.0225 351.369 36.1287C351.215 36.166 351.081 36.2612 350.995 36.3947C350.909 36.5281 350.878 36.6895 350.908 36.8454C351.724 39.189 355.704 38.8467 357.574 38.1275C358.883 37.6113 360.013 36.7258 360.827 35.5789C361.642 34.4319 362.106 33.0728 362.162 31.6671C362.17 31.4843 362.111 31.3048 361.995 31.163C361.879 31.0212 361.715 30.927 361.535 30.8984C361.354 30.8699 361.169 30.909 361.015 31.0083C360.861 31.1075 360.75 31.26 360.701 31.4365Z" fill="#191919"/>
<path d="M363.161 34.2562C362.312 34.795 361.656 35.5899 361.287 36.526C360.919 37.4621 360.858 38.4911 361.113 39.4642C361.544 41.0787 363.632 43.6802 365.522 42.8221C365.61 42.7743 365.686 42.7071 365.745 42.6257C365.803 42.5443 365.843 42.4507 365.86 42.352C365.877 42.2532 365.872 42.1518 365.844 42.0555C365.817 41.9591 365.768 41.8702 365.701 41.7954C365.237 41.4405 364.728 41.1478 364.188 40.9249C363.73 40.6294 363.349 40.2285 363.078 39.7557C362.807 39.283 362.652 38.7522 362.628 38.2076C362.604 37.6631 362.71 37.1206 362.938 36.6256C363.167 36.1306 363.51 35.6974 363.94 35.3623C364.458 34.8341 363.831 33.8247 363.161 34.2562Z" fill="#191919"/>
<path d="M352.036 40.92C352.641 41.0548 353.203 41.3387 353.67 41.7458C354.137 42.1529 354.496 42.6703 354.712 43.2511C354.929 43.8318 354.997 44.4575 354.91 45.0712C354.824 45.685 354.585 46.2673 354.216 46.7654C353.772 47.2018 353.476 47.7665 353.37 48.3799C353.362 48.4836 353.391 48.5867 353.452 48.6711C353.513 48.7555 353.602 48.8157 353.703 48.8411C355.935 49.4562 356.887 45.6866 356.703 44.149C356.569 43.0304 356.046 41.9945 355.226 41.2218C354.407 40.4491 353.342 39.9886 352.217 39.9206C352.091 39.9117 351.967 39.9496 351.868 40.0268C351.768 40.1041 351.701 40.2153 351.678 40.3391C351.656 40.463 351.68 40.5908 351.746 40.698C351.812 40.8052 351.915 40.8842 352.036 40.92Z" fill="#191919"/>
<path d="M363.007 45.0244C359.987 42.6213 355.568 46.1131 356.959 48.7667C356.997 48.8402 357.057 48.9005 357.13 48.9399C357.203 48.9793 357.286 48.9959 357.369 48.9876C357.452 48.9793 357.53 48.9466 357.594 48.8935C357.658 48.8405 357.704 48.7696 357.728 48.6899C358.472 47.0233 360.292 44.9227 362.368 45.9991C362.497 46.0839 362.655 46.1139 362.806 46.0825C362.957 46.0512 363.09 45.9609 363.175 45.8317C363.26 45.7024 363.29 45.5448 363.258 45.3934C363.227 45.242 363.137 45.1093 363.007 45.0244Z" fill="#191919"/>
<path d="M436.815 63.0193C436.732 63.8666 436.463 64.6852 436.028 65.4169C435.593 66.1486 435.002 66.7755 434.297 67.2528C433.592 67.7302 432.791 68.0463 431.95 68.1787C431.109 68.3111 430.249 68.2566 429.432 68.019C428.831 67.713 428.148 67.6053 427.483 67.7114C427.328 67.7493 427.194 67.845 427.108 67.9789C427.022 68.1127 426.991 68.2745 427.021 68.4306C427.837 70.7742 431.815 70.4295 433.687 69.7103C434.994 69.195 436.123 68.3114 436.938 67.1668C437.752 66.0222 438.217 64.6659 438.276 63.2623C438.288 63.0781 438.231 62.8958 438.116 62.751C438.002 62.6063 437.837 62.5093 437.655 62.479C437.473 62.4487 437.286 62.4872 437.131 62.5871C436.975 62.6869 436.863 62.841 436.815 63.0193Z" fill="#191919"/>
<path d="M439.275 65.8415C438.425 66.3797 437.768 67.1744 437.399 68.1106C437.03 69.0469 436.969 70.0761 437.224 71.0495C437.658 72.6665 439.744 75.2655 441.633 74.4074C441.722 74.3601 441.798 74.2934 441.857 74.2123C441.915 74.1312 441.955 74.0378 441.972 73.9392C441.99 73.8406 441.985 73.7394 441.957 73.6431C441.93 73.5468 441.881 73.4579 441.814 73.3832C441.351 73.0266 440.842 72.733 440.302 72.5102C439.843 72.215 439.462 71.8143 439.19 71.3415C438.919 70.8688 438.764 70.3378 438.74 69.793C438.716 69.2483 438.822 68.7056 439.051 68.2106C439.279 67.7155 439.623 67.2824 440.054 66.9476C440.57 66.4169 439.952 65.4075 439.275 65.8415Z" fill="#191919"/>
<path d="M428.15 72.4805C428.755 72.6153 429.316 72.8992 429.784 73.3063C430.251 73.7134 430.609 74.2308 430.826 74.8116C431.043 75.3923 431.111 76.018 431.024 76.6317C430.937 77.2455 430.699 77.8278 430.33 78.3259C429.885 78.762 429.588 79.3267 429.481 79.9403C429.475 80.0441 429.505 80.1468 429.566 80.2309C429.627 80.3151 429.716 80.3754 429.816 80.4016C432.061 81.0167 433.001 77.2471 432.815 75.7095C432.678 74.5928 432.155 73.5592 431.335 72.7889C430.515 72.0185 429.451 71.5601 428.328 71.4935C427.713 71.4042 427.614 72.2945 428.15 72.4805Z" fill="#191919"/>
<path d="M439.146 76.6072C436.182 74.1991 431.706 77.6736 433.097 80.3495C433.136 80.423 433.196 80.4833 433.269 80.5227C433.342 80.562 433.425 80.5787 433.508 80.5704C433.59 80.5621 433.669 80.5294 433.732 80.4763C433.796 80.4233 433.843 80.3523 433.866 80.2726C434.61 78.6061 436.44 76.4832 438.531 77.5818C438.66 77.6503 438.81 77.6675 438.95 77.63C439.091 77.5926 439.213 77.5033 439.291 77.3799C439.369 77.2566 439.397 77.1085 439.37 76.9652C439.343 76.8218 439.263 76.694 439.146 76.6072Z" fill="#191919"/>
<path d="M258.595 289.82C260.385 312.2 263.639 334.48 266.414 356.755C269.174 378.932 277.899 454.763 279.077 460.992C279.325 462.349 281.671 462.349 281.614 460.863C281.386 454.844 266.04 323.499 260.055 289.495C259.904 288.565 258.518 288.873 258.595 289.82Z" fill="#191919"/>
<path d="M134.235 330.966C134.265 330.134 134.094 329.308 133.739 328.555C133.67 328.44 133.575 328.343 133.463 328.269C133.351 328.196 133.223 328.149 133.09 328.132C132.957 328.115 132.822 328.128 132.695 328.17C132.567 328.213 132.451 328.283 132.355 328.377C131.172 329.808 131.752 332.757 132.306 334.401C132.397 334.72 132.611 334.99 132.9 335.153C133.189 335.315 133.531 335.358 133.851 335.27C134.171 335.183 134.444 334.973 134.611 334.686C134.777 334.399 134.824 334.057 134.741 333.736C134.557 332.789 134.344 331.888 134.235 330.966Z" fill="#191919"/>
<path d="M231.701 343.758C219.068 343.138 217.298 341.117 216.499 342.835C209.087 357.932 200.615 372.485 191.146 386.384C185.531 373.309 179.577 359.987 168.893 350.238C163.373 345.036 156.654 341.276 149.333 339.291C136.963 336.05 116.662 334.051 104.472 336.982C103.292 337.268 103.805 339.016 104.968 338.803C111.741 337.563 130.317 337.677 145.549 341.136C152.986 342.504 159.904 345.892 165.545 350.93C169.764 354.543 173.457 358.728 176.519 363.362C183.407 374.278 188.788 386.074 192.515 398.432C194.841 406.928 194.392 409.78 195.464 411.147C195.846 411.643 196.724 411.841 197.053 411.147C197.565 409.025 197.458 406.801 196.743 404.738C195.779 399.515 194.258 394.411 192.207 389.511C201.9 375.308 210.68 360.503 218.495 345.186C222.364 345.924 226.278 346.396 230.211 346.597C229.965 359.903 228.532 373.16 225.928 386.21C223.592 398.747 220.224 411.105 212.598 421.563C195.546 444.979 173.082 442.395 154.688 420.434C145.177 409.088 140.167 395.932 135.512 386.801C135.368 386.567 135.146 386.393 134.885 386.309C134.624 386.225 134.342 386.236 134.089 386.341C133.836 386.447 133.628 386.638 133.504 386.882C133.379 387.127 133.346 387.407 133.409 387.674C135.45 393.396 137.918 398.957 140.792 404.309C149.105 420.253 161.803 436.443 179.324 440.2C191.895 442.896 202.313 437.601 210.82 428.177C219.874 418.158 224.661 405.745 227.458 392.698C230.991 377.122 232.864 361.216 233.046 345.246C233.063 345.058 233.041 344.869 232.982 344.69C232.923 344.511 232.827 344.346 232.7 344.207C232.574 344.067 232.42 343.955 232.248 343.877C232.076 343.8 231.89 343.759 231.701 343.758Z" fill="#2D4F7E"/>
<path d="M170.79 439.124C163.102 470.486 154.918 477.115 153.666 482.499C153.619 482.69 153.636 482.891 153.714 483.072C153.791 483.253 153.925 483.403 154.095 483.502C154.266 483.6 154.463 483.64 154.659 483.617C154.854 483.594 155.036 483.508 155.179 483.372C158.913 480.48 170.602 458.274 172.61 439.354C172.72 438.33 171.031 438.152 170.79 439.124Z" fill="#2D4F7E"/>
<path d="M79.298 389.057C78.8615 388.108 77.6091 388.698 77.5273 389.553C77.0139 394.908 82.0037 413.007 77.4256 444.647C76.1013 453.788 74.8885 456.724 74.8885 459.745C74.8926 459.921 74.9535 460.091 75.062 460.229C75.1706 460.368 75.321 460.468 75.4909 460.514C75.6608 460.56 75.841 460.549 76.0046 460.485C76.1682 460.42 76.3065 460.304 76.3989 460.154C77.3216 458.075 77.9766 455.888 78.3481 453.644C84.7292 426.56 82.0483 395.064 79.298 389.057Z" fill="#2D4F7E"/>
<path d="M72.349 450.326C66.4268 450.514 60.5294 451.923 54.6617 450.224C52.0484 449.386 49.6879 447.904 47.7971 445.915C45.9064 443.926 44.5461 441.493 43.8414 438.841C40.6001 428.318 45.5774 411.236 49.9174 401.145C55.0188 389.241 58.1982 387.257 59.8126 382.456C60.0606 381.712 59.0686 380.871 58.4288 381.379C56.019 383.6 54.0457 386.252 52.6107 389.199C45.1137 402.055 36.9867 424.96 40.7067 438.829C44.6177 453.354 58.223 456.806 72.4954 451.851C73.3237 451.556 73.2468 450.299 72.349 450.326Z" fill="#2D4F7E"/>
<path d="M177.568 302.024C176.682 298.851 175.126 295.905 173.005 293.384C172.32 292.533 171.601 291.422 170.545 291.078C170.37 291.014 170.181 291.001 169.999 291.04C169.817 291.078 169.65 291.167 169.516 291.297C169.382 291.426 169.288 291.59 169.243 291.771C169.198 291.951 169.205 292.141 169.262 292.318C169.592 293.461 170.225 293.436 172.39 296.548C173.493 298.131 176.006 302.22 175.083 303.931C174.55 304.923 173.595 305.112 170.75 306.801C171.373 302.753 167.318 295.552 163.062 293.701C163.035 293.701 163.01 293.677 162.986 293.677C163.447 293.446 163.908 293.215 164.342 293.034C165.652 292.496 167.69 292.273 168.29 290.882C168.379 290.664 168.38 290.42 168.294 290.201C168.208 289.982 168.042 289.804 167.829 289.704C166.47 288.935 164.221 290.329 162.958 290.959C161.613 291.504 160.386 292.305 159.345 293.317C158.715 293.546 158.187 293.991 157.857 294.574C157.413 295.234 157.832 296.496 158.807 296.266C160.112 296.03 161.458 296.222 162.645 296.813C163.832 297.404 164.796 298.363 165.394 299.547C166.634 301.313 168.754 304.854 167.703 307.108C167.395 307.609 166.917 307.982 166.356 308.156C165.795 308.331 165.189 308.296 164.652 308.058C161.793 307.123 159.66 301.942 158.7 299.033C158.351 298.297 158.176 297.49 158.189 296.675C158.348 295.909 157.168 295.318 156.726 296.035C156.272 296.971 156.052 298.003 156.083 299.043C156.115 300.083 156.397 301.1 156.907 302.007C157.632 304.242 158.743 306.334 160.188 308.187C162.341 310.749 166.572 312.339 169.238 309.851C171.352 309.086 173.38 308.098 175.286 306.905C176.128 306.431 176.801 305.706 177.21 304.83C177.619 303.955 177.744 302.974 177.568 302.024Z" fill="#191919"/>
<path d="M464.809 35.1292C452.585 37.1777 440.505 40.5034 428.432 43.3331C416.36 46.1627 386.54 53.0943 383.792 53.816C377.702 55.4231 376.692 58.8107 373.768 64.2766C361.098 88.0448 350.215 112.724 341.211 138.109C312.416 119.367 283.7 98.3047 262.483 81.2225C262.193 80.9879 261.821 80.8776 261.449 80.9157C261.078 80.9537 260.736 81.1371 260.499 81.4258C245.262 105.179 229.998 128.884 214.706 152.54C189.246 133.672 188.728 129.704 187.019 131.289C161.428 155.248 152.917 160.508 140.259 171.896C140.102 172.023 140 172.206 139.973 172.406C139.947 172.606 139.997 172.809 140.115 172.973C140.233 173.136 140.409 173.249 140.607 173.287C140.806 173.326 141.011 173.287 141.181 173.178C154.35 164.412 176.345 144.807 187.805 134.185C196.265 141.722 205.121 148.79 214.185 155.565C214.324 155.679 214.485 155.764 214.657 155.815C214.83 155.866 215.01 155.883 215.189 155.864C215.368 155.845 215.541 155.79 215.699 155.704C215.856 155.617 215.995 155.5 216.107 155.36C231.114 131.552 246.641 108.036 261.893 84.4019C289.084 106.089 316.066 125.381 341.005 141.467C341.179 141.604 341.382 141.701 341.599 141.749C341.815 141.798 342.04 141.798 342.256 141.749C342.472 141.7 342.675 141.603 342.849 141.465C343.023 141.327 343.164 141.152 343.262 140.953C352.703 114.339 364.135 88.474 377.461 63.5773C378.369 61.1138 380.039 59.0037 382.228 57.5534C384.875 56.5315 387.626 55.8005 390.431 55.3734C390.694 55.3139 458.738 39.5535 465.365 37.5175C465.64 37.4077 465.867 37.2028 466.005 36.9398C466.142 36.6769 466.181 36.3735 466.114 36.0845C466.046 35.7955 465.878 35.5403 465.638 35.365C465.399 35.1897 465.105 35.1061 464.809 35.1292Z" fill="#191919"/>
<path d="M183.865 128.829C183.143 129.759 182.707 130.879 182.61 132.053C182.242 133.041 182.181 134.117 182.434 135.141C182.687 136.164 183.242 137.088 184.028 137.791C184.814 138.494 185.794 138.944 186.839 139.082C187.884 139.22 188.947 139.04 189.889 138.565C190.57 138.186 191.169 137.674 191.649 137.061C192.13 136.447 192.484 135.743 192.689 134.991C192.895 134.239 192.948 133.454 192.845 132.681C192.743 131.908 192.487 131.163 192.093 130.49C190.494 127.742 186.248 126.004 183.865 128.829Z" fill="#2D4F7E"/>
<path d="M258.081 77.3512C257.359 78.2818 256.923 79.4016 256.824 80.5752C256.457 81.5637 256.396 82.6397 256.65 83.6632C256.903 84.6866 257.459 85.61 258.245 86.3129C259.031 87.0158 260.01 87.4656 261.056 87.6038C262.101 87.742 263.164 87.5622 264.105 87.0877C264.786 86.7085 265.385 86.197 265.866 85.5833C266.347 84.9696 266.7 84.2661 266.906 83.5139C267.111 82.7618 267.164 81.9762 267.062 81.2033C266.96 80.4303 266.704 79.6856 266.31 79.0128C264.71 76.265 260.46 74.5265 258.081 77.3512Z" fill="#2D4F7E"/>
<path d="M385.977 53.868C384.385 51.1276 380.129 49.404 377.776 52.2015C377.053 53.1316 376.616 54.2517 376.519 55.4255C376.151 56.4139 376.09 57.4902 376.343 58.5139C376.597 59.5375 377.153 60.4611 377.939 61.164C378.725 61.8668 379.705 62.3164 380.75 62.4541C381.796 62.5917 382.859 62.411 383.8 61.9355C384.478 61.5539 385.073 61.0411 385.55 60.427C386.028 59.8128 386.378 59.1097 386.581 58.3586C386.784 57.6075 386.835 56.8236 386.731 56.0525C386.627 55.2815 386.371 54.5389 385.977 53.868Z" fill="#2D4F7E"/>
<path d="M338.297 135.569C337.575 136.5 337.139 137.62 337.039 138.793C336.672 139.782 336.611 140.858 336.864 141.882C337.117 142.905 337.673 143.829 338.46 144.532C339.246 145.235 340.226 145.684 341.271 145.822C342.317 145.959 343.379 145.779 344.321 145.303C345.002 144.924 345.601 144.413 346.081 143.799C346.562 143.185 346.916 142.482 347.121 141.729C347.327 140.977 347.38 140.192 347.277 139.419C347.175 138.646 346.919 137.901 346.525 137.228C344.926 134.485 340.655 132.752 338.297 135.569Z" fill="#2D4F7E"/>
<path d="M211.013 149.413C210.29 150.342 209.854 151.463 209.758 152.637C209.391 153.625 209.33 154.701 209.584 155.724C209.837 156.747 210.393 157.67 211.179 158.373C211.964 159.076 212.944 159.525 213.989 159.663C215.034 159.801 216.096 159.621 217.037 159.147C217.718 158.767 218.317 158.256 218.797 157.642C219.278 157.028 219.631 156.325 219.837 155.573C220.042 154.82 220.095 154.035 219.993 153.262C219.891 152.489 219.636 151.745 219.242 151.072C217.66 148.334 213.387 146.608 211.013 149.413Z" fill="#2D4F7E"/>
<path d="M225.625 281.668C232.009 293.756 236.084 304.132 235.625 318.045C235.377 325.795 233.914 327.901 234.385 330.582C234.563 331.574 235.846 331.479 236.332 330.83C237.387 328.867 237.95 326.677 237.973 324.448C239.957 309.668 236.366 291.809 226.873 280.738C226.268 280.027 225.236 280.929 225.625 281.668Z" fill="#191919"/>
<path d="M216.73 281.951C221.757 289.309 225.162 294.879 226.883 303.971C227.768 308.621 227.359 309.963 228.344 311.791C228.418 311.918 228.525 312.024 228.653 312.098C228.781 312.171 228.926 312.21 229.074 312.21C229.222 312.21 229.367 312.171 229.495 312.098C229.623 312.024 229.73 311.918 229.804 311.791C230.522 309.129 230.46 306.318 229.626 303.691C228.084 295.137 224.085 287.217 218.116 280.9C217.407 280.198 216.137 281.081 216.73 281.951Z" fill="#191919"/>
<path d="M211.628 289.461C215.231 294.316 217.757 299.883 219.039 305.791C219.224 307.821 219.771 309.8 220.653 311.637C220.75 311.794 220.891 311.92 221.058 311.999C221.226 312.079 221.412 312.108 221.596 312.083C221.779 312.059 221.952 311.982 222.092 311.862C222.233 311.742 222.336 311.584 222.389 311.406C222.635 309.26 222.353 307.087 221.568 305.075C220.27 298.832 217.266 293.072 212.888 288.436C212.243 287.898 211.048 288.689 211.628 289.461Z" fill="#191919"/>
<path d="M205.887 297.769C210.599 305.975 216.702 313.172 218.627 323.097C219.07 326.369 219.327 329.664 219.396 332.965C219.579 334.068 221.189 333.887 221.474 332.965C222.176 329.608 222.092 326.133 221.226 322.814C219.351 313.04 213.082 304.71 207.05 296.871C206.515 296.189 205.475 297.052 205.887 297.769Z" fill="#191919"/>
<path d="M253.902 291.026C250.039 304.817 221.982 452.811 220.884 460.273C220.636 461.992 223.237 462.81 223.612 461.017C225.844 450.013 227.609 438.893 229.636 427.845C231.662 416.796 255.18 297.942 256.142 291.665C256.355 290.205 254.312 289.565 253.902 291.026Z" fill="#191919"/>
<path d="M214.937 320.634C214.217 318.25 213.291 315.934 212.167 313.713C212.167 314.02 212.189 314.328 212.194 314.635C212.271 319.02 211.792 320.634 214.937 320.634Z" fill="#2D4F7E"/>
<path d="M237.725 293.23C240.881 301.944 242.259 311.201 241.778 320.456C242.239 320.456 242.7 320.456 243.137 320.431C246.842 305.075 249.3 295.956 252.082 286.361C247.313 288.615 242.519 290.924 237.725 293.23Z" fill="#2D4F7E"/>
<path d="M343.859 236.138C341.412 236.936 339.007 237.861 336.655 238.908C334.249 240.047 250.877 279.131 234.752 287.077C234.93 287.42 235.863 289.245 236.061 289.771C240.391 287.643 334.502 243.29 337.193 242.011C339.834 240.753 342.245 239.295 344.757 237.78C345.732 237.192 344.807 235.806 343.859 236.138Z" fill="#191919"/>
<path d="M350.369 217.836C349.087 212.15 345.859 207.09 341.243 203.531C338.944 201.643 336.309 200.208 333.476 199.3C329.81 198.35 326.299 200.585 323.06 201.994C275.692 222.627 244.101 235.912 214.8 250.85C207.058 254.798 176.526 271.257 174.706 272.306C172.655 273.487 170.788 274.853 168.809 276.101C168.714 276.159 168.638 276.243 168.588 276.342C168.539 276.442 168.518 276.553 168.528 276.664C164.312 276.999 161.379 282.073 162.093 286.175C162.197 286.765 163.085 286.996 163.333 286.356C164.159 284.049 164.233 281.564 166.334 279.92C168.59 278.154 170.904 279.424 172.871 280.947C176.64 284.09 179.655 288.042 181.69 292.509C184.324 297.052 185.786 302.179 185.945 307.428C185.869 309.606 185.611 313.001 182.721 312.884C181.507 312.777 180.354 312.303 179.416 311.525C178.518 310.831 177.928 309.859 177.082 309.139C176.916 309.016 176.717 308.943 176.511 308.929C176.304 308.915 176.098 308.961 175.917 309.061C175.736 309.162 175.587 309.312 175.489 309.494C175.391 309.676 175.347 309.883 175.363 310.089C176.306 314.767 185.08 318.137 187.669 312.217C193.958 310.613 200.012 308.2 205.681 305.04C205.135 304.233 204.638 303.394 204.193 302.528C199.022 305.239 193.717 307.686 188.299 309.861C190.149 297.511 178.349 279.052 170.661 276.842H170.634C171.943 276.304 173.275 275.816 174.532 275.176C225.886 249.052 211.326 253.248 328.243 203.008C329.04 202.55 329.925 202.265 330.839 202.173C331.754 202.08 332.677 202.181 333.55 202.47C337.986 204.246 341.773 207.336 344.403 211.325C347.033 215.315 348.381 220.013 348.266 224.79C348.118 228.096 347.513 231.365 346.471 234.506C345.933 236.351 348.703 237.584 349.239 235.746C351.131 229.254 352.135 224.901 350.369 217.836Z" fill="#191919"/>
<path d="M145.283 309.586C145.283 309.69 145.304 309.794 145.344 309.89C145.384 309.987 145.443 310.074 145.517 310.148C145.591 310.222 145.678 310.28 145.775 310.32C145.872 310.359 145.975 310.38 146.079 310.379C148.616 310.367 148.559 306.585 147.897 304.923C146.779 302.151 143.976 300.769 142.411 298.359C142.163 298.111 141.938 296.238 139.696 291.08C142.568 284.759 139.483 276.89 130.8 274.851C126.234 273.119 121.305 272.564 116.468 273.236C98.6122 275.523 89.6222 289.676 92.5511 301.923C90.1205 304.267 88.4094 307.257 87.6187 310.54C86.828 313.823 86.9905 317.264 88.0871 320.458C86.2556 320.959 84.5455 321.829 83.0613 323.013C81.5771 324.197 80.35 325.672 79.455 327.347C78.5599 329.021 78.0158 330.861 77.8558 332.753C77.6957 334.645 77.9232 336.55 78.5242 338.351C74.6043 339.657 71.1518 342.081 68.5921 345.324C66.0323 348.567 64.4771 352.488 64.1179 356.604C61.1983 356.991 58.4174 358.085 56.0169 359.792C53.6164 361.498 51.669 363.765 50.344 366.395C49.8629 367.372 49.6322 368.449 49.166 369.421C48.2161 371.39 46.4777 369.798 34.0132 373.342C32.8326 373.532 31.7107 373.989 30.7321 374.676C28.7605 376.524 30.6032 379.14 31.6547 380.906C33.0906 383.316 34.6456 385.63 36.2948 387.877C36.5004 388.201 36.8201 388.436 37.1907 388.536C37.5613 388.635 37.9557 388.592 38.2961 388.415C41.8747 386.857 45.023 384.456 47.4721 381.417C48.6278 379.983 49.6 378.21 51.5493 377.88C53.3696 377.57 55.2147 377.93 57.0598 377.632C60.0932 377.053 62.8821 375.575 65.0632 373.389C67.2444 371.203 68.7168 368.411 69.2887 365.376C71.5721 365.393 73.8344 364.938 75.9329 364.037C78.0315 363.137 79.9208 361.812 81.4818 360.145C83.0429 358.479 84.2418 356.507 85.003 354.354C85.7642 352.201 86.0712 349.914 85.9047 347.636C87.8368 347.524 89.7259 347.021 91.4579 346.157C93.1898 345.294 94.7285 344.087 95.9809 342.612C98.6537 339.315 100.531 335.446 101.467 331.306C106.302 332.382 111.352 331.943 115.929 330.049C120.506 328.154 124.389 324.897 127.05 320.719C128.292 319.07 128.991 317.077 129.052 315.015C129.905 315.281 130.803 315.373 131.693 315.284C132.583 315.196 133.445 314.93 134.23 314.501C138.014 312.502 137.035 309.774 135.589 310.144C134.51 310.419 134.024 311.577 133.077 312.143C132.156 312.645 131.096 312.833 130.058 312.675C129.021 312.518 128.064 312.025 127.333 311.272C126.57 310.301 126.134 309.112 126.09 307.878C126.045 306.643 126.394 305.426 127.085 304.403C127.619 303.769 128.374 303.361 129.196 303.262C130.019 303.162 130.849 303.377 131.519 303.864C132.953 305.174 135.073 303.078 133.647 301.737C133.066 301.186 132.431 300.695 131.75 300.273C134.32 298.33 136.578 296.005 138.446 293.379C141.156 301.939 142.817 310.796 143.394 319.756C143.456 324.059 142.154 325.795 136.96 325.654C134.921 325.399 132.9 325.014 130.909 324.501C130.64 324.436 130.356 324.469 130.109 324.595C129.861 324.72 129.666 324.929 129.559 325.184C129.451 325.439 129.437 325.725 129.52 325.989C129.603 326.254 129.777 326.48 130.011 326.628C131.941 327.71 134.091 328.338 136.3 328.462C138.508 328.586 140.715 328.204 142.754 327.345C146.518 325.237 146.288 320.649 145.958 316.929C145.541 311.972 144.711 307.059 143.478 302.24C143.974 302.83 144.455 303.391 144.939 304.036C147.312 307.208 145.479 308.053 145.283 309.586ZM92.5238 318.534C91.1251 319.932 88.5211 315.235 90.1653 311.944C90.4729 311.329 91.2714 311.696 91.321 312.252C91.3336 313.225 91.4365 314.195 91.6285 315.148C91.9435 316.302 93.248 317.961 92.5238 318.534ZM101.549 283.848C101.023 285.552 98.699 287.506 98.2154 292.154C98.2739 293.12 98.104 294.086 97.7194 294.974C97.6562 295.077 97.5676 295.162 97.4621 295.221C97.3566 295.28 97.2377 295.311 97.1168 295.311C96.9958 295.311 96.8769 295.28 96.7714 295.221C96.6659 295.162 96.5773 295.077 96.5141 294.974C95.3485 293.394 96.4695 290.158 97.1044 288.513C97.8037 286.695 98.9321 284.064 100.847 283.283C101.184 283.149 101.68 283.414 101.549 283.848Z" fill="#191919"/>
</svg>
