<svg width="282" height="280" viewBox="0 0 282 280" fill="none" xmlns="http://www.w3.org/2000/svg">
<rect width="282" height="280" rx="8" fill="#0071DC"/>
<g clip-path="url(#clip0_0_208)">
<path fill-rule="evenodd" clip-rule="evenodd" d="M153.015 147.416C153.015 147.828 152.947 148.308 152.879 148.651C152.264 150.435 150.626 151.602 148.714 151.602C147.008 151.602 145.711 150.641 145.711 148.583C145.711 145.426 149.124 144.603 153.083 144.603V147.416H153.015ZM159.159 141.927C159.159 136.781 156.975 132.183 149.534 132.183C145.71 132.183 142.638 133.281 141 134.242L142.229 138.427C144.14 137.329 146.257 136.712 148.441 136.643C152.264 136.643 152.879 138.77 152.879 140.143V140.486C144.618 140.486 139.43 143.368 139.43 149.2C139.43 152.768 142.092 156.13 146.735 156.13C149.534 156.13 151.923 155.032 153.357 153.18H153.493C153.493 153.18 154.449 157.16 159.637 155.65C159.364 154.003 159.228 152.219 159.228 150.161V141.927H159.159ZM33 125.116L39.2807 150.916C40.3047 155.101 42.0796 156.679 47.268 155.65L50.6131 141.927C51.4324 138.496 52.0468 136.094 52.5929 132.595H52.6612C53.0708 136.094 53.6169 138.496 54.2996 141.927L56.3477 151.464C57.0986 154.758 59.0101 156.816 64.1302 155.65L72.1176 125.184H65.6321L62.9014 138.359C62.1504 142.201 61.4678 145.22 60.9899 148.72C60.512 145.22 59.8976 142.338 59.1467 138.633L56.3477 125.184H49.5891L46.5171 138.29C45.6979 142.27 44.8786 145.495 44.3325 148.857H44.2642C43.7181 145.701 43.0354 141.652 42.2845 137.81L39.8268 125.116H33ZM83.9962 147.416C83.9962 147.828 83.9962 148.308 83.8597 148.651C83.2453 150.435 81.6068 151.602 79.6953 151.602C77.9886 151.602 76.6915 150.641 76.6915 148.583C76.6915 145.426 80.1049 144.603 84.0645 144.603V147.416H83.9962ZM90.2086 141.927C90.2086 136.781 88.024 132.183 80.5828 132.183C76.7598 132.183 73.6877 133.281 72.0493 134.242L73.2781 138.427C75.1896 137.329 77.3059 136.712 79.4905 136.643C83.3135 136.643 83.9279 138.77 83.9279 140.143V140.486C75.6675 140.486 70.4791 143.368 70.4791 149.2C70.4791 152.768 73.1416 156.13 77.7838 156.13C80.5828 156.13 82.9722 155.032 84.4058 153.18H84.5424C84.5424 153.18 85.4981 157.16 90.6865 155.65C90.4134 154.003 90.2769 152.219 90.2769 150.161V141.927H90.2086ZM99.6979 149.131V125.116H93.5537V155.581H99.6979V149.131ZM178.07 125.184V147.622C178.07 150.71 178.616 152.905 179.913 154.209C181.005 155.376 182.78 156.13 184.896 156.13C186.74 156.13 188.515 155.787 189.334 155.444L189.265 150.572C188.651 150.778 187.9 150.847 186.944 150.847C184.828 150.847 184.145 149.543 184.145 146.73V138.222H189.539V132.389H184.145V125.116L178.07 125.184ZM162.163 132.732V155.65H168.512V143.917C168.512 143.299 168.58 142.75 168.649 142.201C169.126 139.731 170.97 138.153 173.7 138.153C174.451 138.153 174.929 138.222 175.544 138.29V132.252C175.066 132.183 174.588 132.115 174.178 132.115C171.789 132.115 169.126 133.624 167.966 136.986H167.829V132.664L162.163 132.732ZM103.316 132.732V155.65H109.46V142.201C109.46 141.584 109.528 140.898 109.733 140.349C110.211 138.976 111.508 137.398 113.488 137.398C116.014 137.398 117.174 139.525 117.174 142.544V155.581H123.387V141.995C123.387 141.378 123.455 140.623 123.66 140.143C124.138 138.496 125.708 137.329 127.415 137.329C129.941 137.329 131.169 139.388 131.169 143.025V155.581H137.382V142.133C137.382 135.065 133.764 132.183 129.736 132.183C127.893 132.183 126.527 132.664 125.23 133.418C124.138 134.105 123.182 135.065 122.363 136.3H122.295C121.271 133.761 118.745 132.115 116.014 132.183C113.283 132.046 110.689 133.418 109.392 135.82H109.324V132.732H103.316Z" fill="white"/>
<path fill-rule="evenodd" clip-rule="evenodd" d="M222.785 131.703C224.014 131.703 225.038 131.017 225.175 130.262L226.335 116.47C226.335 115.098 224.765 114 222.785 114C220.805 114 219.235 115.098 219.235 116.47L220.464 130.262C220.532 131.085 221.556 131.703 222.785 131.703ZM215.344 136.026C215.958 134.928 215.89 133.761 215.276 133.213L204.011 125.322C202.851 124.636 201.076 125.459 200.12 127.174C199.096 128.89 199.301 130.88 200.461 131.497L212.955 137.33C213.705 137.604 214.798 137.055 215.344 136.026ZM230.158 135.957C230.772 137.055 231.797 137.604 232.616 137.261L245.041 131.429C246.201 130.742 246.406 128.821 245.382 127.106C244.358 125.39 242.651 124.567 241.491 125.253L230.226 133.213C229.612 133.761 229.544 134.928 230.158 135.957ZM222.785 148.857C224.014 148.857 225.038 149.543 225.175 150.298L226.335 164.09C226.335 165.462 224.765 166.56 222.785 166.56C220.805 166.56 219.235 165.462 219.235 164.09L220.464 150.298C220.532 149.475 221.556 148.857 222.785 148.857ZM230.158 144.603C230.772 143.505 231.797 142.956 232.616 143.23L245.041 149.063C246.201 149.749 246.406 151.67 245.382 153.386C244.358 155.101 242.651 155.924 241.491 155.238L230.226 147.347C229.612 146.867 229.544 145.632 230.158 144.603ZM215.344 144.603C215.958 145.632 215.89 146.867 215.276 147.416L204.011 155.307C202.851 155.993 201.076 155.17 200.12 153.454C199.096 151.739 199.301 149.818 200.461 149.131L212.955 143.299C213.705 142.956 214.798 143.505 215.344 144.603ZM247.703 154.072H247.839C247.976 154.072 248.113 154.003 248.113 153.935C248.113 153.797 248.044 153.797 247.908 153.797H247.771V154.072H247.703ZM247.703 154.689H247.43V153.592H247.839C248.044 153.592 248.113 153.592 248.249 153.66C248.317 153.729 248.386 153.797 248.386 153.866C248.386 154.003 248.317 154.072 248.181 154.14C248.317 154.209 248.386 154.278 248.386 154.415C248.386 154.621 248.454 154.621 248.454 154.689H248.181C248.113 154.621 248.113 154.552 248.113 154.415C248.113 154.278 248.044 154.278 247.908 154.278H247.771L247.703 154.689ZM247.839 153.248C247.362 153.248 247.02 153.66 247.02 154.14C247.02 154.621 247.362 155.032 247.839 155.032C248.317 155.032 248.659 154.621 248.659 154.14C248.727 153.66 248.317 153.248 247.839 153.248ZM247.839 153.043C248.454 153.043 248.932 153.523 248.932 154.14C248.932 154.758 248.454 155.238 247.839 155.238C247.225 155.238 246.679 154.758 246.679 154.14C246.747 153.523 247.225 153.043 247.839 153.043Z" fill="#F3B53B"/>
</g>
<defs>
<clipPath id="clip0_0_208">
<rect width="216" height="52.56" fill="white" transform="translate(33 114)"/>
</clipPath>
</defs>
</svg>
