<svg width="282" height="280" viewBox="0 0 282 280" fill="none" xmlns="http://www.w3.org/2000/svg">
<rect width="282" height="280" rx="8" fill="#107C10"/>
<g clip-path="url(#clip0_0_219)">
<path d="M70.3735 134.542C79.2149 141.274 94.2579 157.791 89.6905 162.433C84.4946 166.949 77.7484 169.667 70.3735 169.667C62.9987 169.667 56.1686 166.949 51.0566 162.433C46.4473 157.749 61.5321 141.232 70.2897 134.584C70.2897 134.542 70.3735 134.542 70.3735 134.542Z" fill="white"/>
<path d="M85.6679 115.307C81.1843 112.589 76.2818 111 70.3735 111C64.4653 111 59.5208 112.589 55.0373 115.307C54.9535 115.307 54.9535 115.391 54.9535 115.432C54.9535 115.474 55.0373 115.516 55.0792 115.516C60.7779 114.262 69.4098 119.154 70.2478 119.698H70.3735C71.1697 119.196 79.8016 114.303 85.5422 115.516C85.626 115.516 85.6679 115.516 85.6679 115.432C85.6679 115.349 85.7517 115.307 85.6679 115.307Z" fill="white"/>
<path d="M49.7995 119.405C49.7157 119.405 49.7157 119.489 49.6738 119.489C44.3103 124.799 41 132.2 41 140.312C41 146.961 43.2627 153.15 46.992 158.084C46.992 158.168 47.0758 158.168 47.1177 158.168C47.2016 158.168 47.2016 158.084 47.1177 158.042C44.8969 151.017 56.3782 134.291 62.2864 127.308L62.3702 127.224C62.3702 127.141 62.3702 127.141 62.2864 127.141C53.3193 118.234 50.3023 119.196 49.7995 119.405Z" fill="white"/>
<path d="M78.4188 127.057L78.335 127.141C78.335 127.141 78.335 127.224 78.4188 127.224C84.3689 134.249 95.7663 150.975 93.5874 157.917V158.042C93.6712 158.042 93.7131 158.042 93.7131 157.958C97.4424 153.066 99.7052 146.836 99.7052 140.187C99.7052 132.075 96.3949 124.715 90.9895 119.363C90.9057 119.279 90.9057 119.279 90.8638 119.279C90.4028 119.196 87.4278 118.234 78.4188 127.057Z" fill="white"/>
<path d="M142.278 158.377H136.244L125.81 144.034L115.335 158.418H109.301L122.71 139.894L110.39 122.876H116.424L125.81 135.755L135.196 122.876H141.23L128.827 139.894L142.278 158.377ZM173.705 148.299C173.705 151.393 172.657 153.902 170.604 155.659C168.551 157.415 165.576 158.377 161.763 158.377H145.169V142.529H137.208L140.518 137.971H145.169V122.876H161.134C164.738 122.876 167.503 123.754 169.389 125.468C171.316 127.183 172.28 129.441 172.28 132.159C172.28 135.546 170.73 138.18 167.629 139.894C169.64 140.647 171.107 141.818 172.112 143.198C173.202 144.619 173.705 146.376 173.705 148.299ZM150.533 138.054H160.715C162.768 138.054 164.319 137.594 165.366 136.675C166.414 135.796 166.917 134.375 166.917 132.535C166.917 130.988 166.414 129.733 165.282 128.855C164.235 127.977 162.684 127.517 160.715 127.517H150.533V138.054ZM168.257 148.132C168.257 146.292 167.671 144.829 166.539 143.95C165.45 142.989 163.732 142.57 161.511 142.57H150.491V153.652H161.427C163.564 153.652 165.282 153.15 166.456 152.272C167.671 151.31 168.257 149.93 168.257 148.132ZM210.327 140.647C210.327 143.365 209.95 145.958 209.154 148.174C208.358 150.39 207.143 152.355 205.592 154.07C203.958 155.784 202.115 157.08 200.061 157.917C198.008 158.795 195.62 159.171 192.98 159.171C190.382 159.171 187.952 158.711 185.898 157.917C183.845 157.039 182.001 155.784 180.367 154.07C178.733 152.355 177.56 150.39 176.764 148.174C175.967 145.958 175.59 143.365 175.59 140.647C175.59 137.929 175.967 135.336 176.764 133.12C177.56 130.904 178.775 128.855 180.367 127.141C181.918 125.426 183.761 124.214 185.898 123.294C187.952 122.499 190.382 122.039 192.98 122.039C195.578 122.039 197.924 122.499 200.061 123.294C202.115 124.088 204.042 125.426 205.592 127.141C207.143 128.855 208.4 130.904 209.154 133.12C209.908 135.336 210.327 137.845 210.327 140.647ZM181.163 140.647C181.163 144.829 182.253 148.174 184.432 150.599C186.569 153.024 189.376 154.279 192.98 154.279C196.542 154.279 199.391 153.024 201.528 150.599C203.665 148.174 204.712 144.87 204.712 140.647C204.712 136.424 203.665 133.078 201.528 130.611C199.391 128.186 196.5 126.932 192.98 126.932C189.46 126.932 186.569 128.186 184.432 130.611C182.295 133.12 181.163 136.424 181.163 140.647ZM227.465 139.894L239.869 122.876H233.835L224.448 135.755L215.062 122.876H209.028L221.432 139.894L207.981 158.377H214.057L224.448 144.034L234.924 158.418H240.958L227.465 139.894Z" fill="white"/>
</g>
<defs>
<clipPath id="clip0_0_219">
<rect width="200" height="58.6667" fill="white" transform="translate(41 111)"/>
</clipPath>
</defs>
</svg>
