<svg width="37" height="37" viewBox="0 0 37 37" fill="none" xmlns="http://www.w3.org/2000/svg">
<g id="Mask group">
<mask id="mask0_0_337" style="mask-type:alpha" maskUnits="userSpaceOnUse" x="0" y="0" width="37" height="37">
<rect id="Rectangle 11590" x="0.767029" y="0.76709" width="35.534" height="35.534" rx="17.767" fill="white"/>
</mask>
<g mask="url(#mask0_0_337)">
<g id="Group 54538">
<path id="Vector" d="M18.5284 37.7816C29.1585 37.7816 37.776 29.1641 37.776 18.534C37.776 7.90382 29.1585 -0.713623 18.5284 -0.713623C7.89821 -0.713623 -0.719238 7.90382 -0.719238 18.534C-0.719238 29.1641 7.89821 37.7816 18.5284 37.7816Z" fill="#26A17B"/>
<g id="Group">
<path id="Vector_2" d="M20.5732 20.3103V20.3072C20.4401 20.3165 19.7532 20.3567 18.2245 20.3567C17.0022 20.3567 16.145 20.3227 15.8418 20.3072V20.3103C11.1413 20.103 7.63522 19.286 7.63522 18.3051C7.63522 17.3272 11.1444 16.5072 15.8418 16.2999V19.4964C16.1481 19.5181 17.03 19.5707 18.2462 19.5707C19.7068 19.5707 20.437 19.5088 20.5732 19.4964V16.3029C25.2644 16.5134 28.7612 17.3303 28.7612 18.3082C28.7612 19.286 25.2613 20.103 20.5732 20.3134M20.5732 15.9718V13.1125H27.118V8.75244H9.30005V13.1125H15.8449V15.9718C10.5255 16.2163 6.5274 17.2684 6.5274 18.531C6.5274 19.7935 10.5286 20.8456 15.8449 21.0932V30.259H20.5763V21.0932C25.8864 20.8487 29.8783 19.7966 29.8783 18.5341C29.8783 17.2746 25.8864 16.2194 20.5763 15.9749" fill="white"/>
</g>
</g>
</g>
</g>
</svg>
